<svg width="243" height="155" viewBox="0 0 243 155" fill="none" xmlns="http://www.w3.org/2000/svg">
<path d="M14.4286 151.899C14.0465 151.899 13.7186 151.802 13.4449 151.609C13.1726 151.414 12.963 151.133 12.8161 150.767C12.6707 150.399 12.598 149.956 12.598 149.437C12.5996 148.919 12.673 148.478 12.8184 148.115C12.9654 147.75 13.175 147.472 13.4472 147.28C13.721 147.088 14.0481 146.992 14.4286 146.992C14.8091 146.992 15.1362 147.088 15.41 147.28C15.6838 147.472 15.8934 147.75 16.0388 148.115C16.1857 148.48 16.2592 148.921 16.2592 149.437C16.2592 149.957 16.1857 150.401 16.0388 150.769C15.8934 151.136 15.6838 151.416 15.41 151.609C15.1378 151.802 14.8106 151.899 14.4286 151.899ZM14.4286 151.173C14.7256 151.173 14.9599 151.027 15.1316 150.734C15.3048 150.44 15.3914 150.008 15.3914 149.437C15.3914 149.06 15.352 148.743 15.2731 148.486C15.1942 148.229 15.0829 148.036 14.939 147.906C14.7952 147.775 14.625 147.709 14.4286 147.709C14.1332 147.709 13.8996 147.856 13.7279 148.15C13.5562 148.442 13.4696 148.871 13.4681 149.437C13.4665 149.816 13.5044 150.135 13.5817 150.393C13.6606 150.652 13.772 150.847 13.9158 150.978C14.0597 151.108 14.2306 151.173 14.4286 151.173Z" fill="black"/>
<path d="M8.60788 134.671C8.29853 134.671 8.02166 134.613 7.77727 134.497C7.53289 134.38 7.33877 134.219 7.19493 134.015C7.05262 133.811 6.97683 133.577 6.96755 133.314H7.8028C7.81826 133.509 7.90256 133.668 8.05569 133.792C8.20882 133.914 8.39288 133.975 8.60788 133.975C8.77647 133.975 8.92651 133.937 9.05798 133.859C9.18945 133.782 9.29309 133.675 9.36888 133.537C9.44467 133.399 9.48179 133.242 9.48024 133.066C9.48179 132.886 9.44389 132.727 9.36656 132.588C9.28922 132.449 9.18327 132.34 9.0487 132.261C8.91413 132.18 8.75946 132.14 8.58468 132.14C8.44238 132.139 8.30239 132.165 8.16473 132.219C8.02707 132.273 7.91803 132.344 7.8376 132.432L7.06036 132.305L7.30861 129.855H10.0649V130.574H8.02089L7.884 131.834H7.91184C8.00001 131.73 8.12452 131.644 8.28538 131.576C8.44624 131.507 8.62257 131.472 8.81437 131.472C9.10206 131.472 9.35882 131.54 9.58465 131.676C9.81047 131.811 9.98835 131.996 10.1183 132.233C10.2482 132.47 10.3132 132.74 10.3132 133.045C10.3132 133.359 10.2405 133.639 10.0951 133.885C9.95123 134.129 9.75092 134.322 9.49416 134.463C9.23895 134.602 8.94352 134.671 8.60788 134.671ZM11.0997 134.606V131.043H11.914V131.637H11.9512C12.0161 131.431 12.1275 131.272 12.2853 131.161C12.4446 131.048 12.6263 130.992 12.8305 130.992C12.8769 130.992 12.9287 130.994 12.9859 130.999C13.0447 131.002 13.0934 131.007 13.1321 131.015V131.788C13.0965 131.775 13.0401 131.764 12.9627 131.755C12.8869 131.744 12.8135 131.739 12.7423 131.739C12.5892 131.739 12.4515 131.772 12.3293 131.839C12.2087 131.904 12.1136 131.994 12.044 132.11C11.9744 132.226 11.9396 132.36 11.9396 132.511V134.606H11.0997ZM13.7272 134.606V129.855H14.5671V131.632H14.6019C14.6452 131.545 14.7063 131.453 14.7852 131.356C14.8641 131.257 14.9708 131.173 15.1054 131.103C15.2399 131.032 15.4116 130.996 15.6204 130.996C15.8958 130.996 16.144 131.067 16.3652 131.207C16.5879 131.347 16.7643 131.553 16.8942 131.827C17.0257 132.099 17.0914 132.433 17.0914 132.829C17.0914 133.221 17.0272 133.553 16.8988 133.827C16.7704 134.101 16.5957 134.309 16.3745 134.453C16.1533 134.597 15.9027 134.669 15.6228 134.669C15.4186 134.669 15.2492 134.635 15.1146 134.567C14.9801 134.499 14.8718 134.417 14.7898 134.321C14.7094 134.224 14.6468 134.132 14.6019 134.045H14.5532V134.606H13.7272ZM14.5509 132.825C14.5509 133.055 14.5833 133.257 14.6483 133.43C14.7148 133.603 14.8099 133.739 14.9337 133.836C15.059 133.932 15.2105 133.98 15.3884 133.98C15.574 133.98 15.7295 133.931 15.8548 133.832C15.9801 133.731 16.0744 133.594 16.1378 133.421C16.2028 133.246 16.2353 133.047 16.2353 132.825C16.2353 132.603 16.2036 132.407 16.1401 132.235C16.0767 132.064 15.9824 131.929 15.8571 131.832C15.7318 131.734 15.5756 131.685 15.3884 131.685C15.209 131.685 15.0566 131.733 14.9314 131.827C14.8061 131.921 14.7109 132.054 14.646 132.224C14.5826 132.394 14.5509 132.594 14.5509 132.825Z" fill="black"/>
<path d="M6.43842 109.376V114.128H5.57765V110.214H5.54981L4.43847 110.924V110.135L5.61941 109.376H6.43842ZM9.40121 114.218C9.01916 114.218 8.69125 114.121 8.41748 113.928C8.14525 113.733 7.93567 113.453 7.78873 113.086C7.64333 112.718 7.57063 112.275 7.57063 111.757C7.57218 111.238 7.64565 110.798 7.79105 110.434C7.93799 110.069 8.14757 109.791 8.4198 109.599C8.69357 109.407 9.02071 109.311 9.40121 109.311C9.78171 109.311 10.1088 109.407 10.3826 109.599C10.6564 109.791 10.866 110.069 11.0114 110.434C11.1583 110.799 11.2318 111.24 11.2318 111.757C11.2318 112.276 11.1583 112.72 11.0114 113.088C10.866 113.455 10.6564 113.735 10.3826 113.928C10.1104 114.121 9.78325 114.218 9.40121 114.218ZM9.40121 113.492C9.69818 113.492 9.93251 113.346 10.1042 113.053C10.2774 112.76 10.3641 112.327 10.3641 111.757C10.3641 111.379 10.3246 111.062 10.2457 110.805C10.1668 110.549 10.0555 110.355 9.91163 110.225C9.76779 110.094 9.59764 110.028 9.40121 110.028C9.10578 110.028 8.87222 110.175 8.70053 110.469C8.52884 110.761 8.44223 111.19 8.44068 111.757C8.43913 112.135 8.47703 112.454 8.55436 112.712C8.63325 112.971 8.74461 113.166 8.88846 113.297C9.03231 113.427 9.20322 113.492 9.40121 113.492ZM12.0119 114.128V110.564H12.8263V111.158H12.8634C12.9284 110.952 13.0397 110.794 13.1975 110.682C13.3568 110.569 13.5386 110.513 13.7427 110.513C13.7891 110.513 13.8409 110.515 13.8982 110.52C13.957 110.523 14.0057 110.528 14.0443 110.536V111.309C14.0088 111.296 13.9523 111.286 13.875 111.276C13.7992 111.265 13.7257 111.26 13.6546 111.26C13.5014 111.26 13.3638 111.293 13.2416 111.36C13.1209 111.425 13.0258 111.515 12.9562 111.631C12.8866 111.747 12.8518 111.881 12.8518 112.033V114.128H12.0119ZM14.6395 114.128V109.376H15.4793V111.153H15.5141C15.5574 111.067 15.6185 110.975 15.6974 110.877C15.7763 110.778 15.883 110.694 16.0176 110.624C16.1522 110.553 16.3239 110.518 16.5327 110.518C16.808 110.518 17.0562 110.588 17.2774 110.729C17.5002 110.868 17.6765 111.074 17.8064 111.348C17.9379 111.62 18.0036 111.955 18.0036 112.35C18.0036 112.742 17.9394 113.074 17.8111 113.348C17.6827 113.622 17.5079 113.831 17.2867 113.975C17.0655 114.118 16.815 114.19 16.535 114.19C16.3308 114.19 16.1615 114.156 16.0269 114.088C15.8923 114.02 15.784 113.938 15.7021 113.842C15.6216 113.745 15.559 113.653 15.5141 113.566H15.4654V114.128H14.6395ZM15.4631 112.346C15.4631 112.576 15.4956 112.778 15.5605 112.951C15.6271 113.125 15.7222 113.26 15.8459 113.357C15.9712 113.453 16.1228 113.501 16.3007 113.501C16.4863 113.501 16.6417 113.452 16.767 113.353C16.8923 113.252 16.9866 113.115 17.0501 112.942C17.115 112.767 17.1475 112.569 17.1475 112.346C17.1475 112.125 17.1158 111.928 17.0524 111.757C16.989 111.585 16.8946 111.45 16.7693 111.353C16.644 111.255 16.4878 111.207 16.3007 111.207C16.1212 111.207 15.9689 111.254 15.8436 111.348C15.7183 111.443 15.6232 111.575 15.5582 111.745C15.4948 111.915 15.4631 112.115 15.4631 112.346Z" fill="black"/>
<path d="M5.34079 35.5545C5.03144 35.5545 4.75457 35.4965 4.51019 35.3805C4.2658 35.2629 4.07168 35.102 3.92784 34.8979C3.78553 34.6937 3.70974 34.4601 3.70046 34.1972H4.53571C4.55117 34.3921 4.63547 34.5514 4.7886 34.6751C4.94173 34.7973 5.12579 34.8584 5.34079 34.8584C5.50938 34.8584 5.65942 34.8198 5.79089 34.7424C5.92236 34.6651 6.026 34.5576 6.10179 34.4199C6.17758 34.2823 6.2147 34.1253 6.21315 33.9489C6.2147 33.7695 6.1768 33.6102 6.09947 33.471C6.02213 33.3318 5.91618 33.2227 5.78161 33.1439C5.64704 33.0634 5.49237 33.0232 5.31759 33.0232C5.17529 33.0217 5.03531 33.048 4.89764 33.1021C4.75998 33.1562 4.65094 33.2274 4.57051 33.3156L3.79327 33.1879L4.04152 30.7379H6.79782V31.4571H4.7538L4.61691 32.717H4.64475C4.73292 32.6133 4.85743 32.5275 5.01829 32.4594C5.17915 32.3898 5.35548 32.355 5.54728 32.355C5.83497 32.355 6.09173 32.4231 6.31756 32.5592C6.54338 32.6938 6.72126 32.8794 6.85118 33.116C6.98111 33.3527 7.04607 33.6234 7.04607 33.9281C7.04607 34.2421 6.97338 34.522 6.82798 34.7679C6.68414 35.0123 6.48383 35.2049 6.22707 35.3457C5.97186 35.4849 5.67643 35.5545 5.34079 35.5545ZM9.57964 35.58C9.1976 35.58 8.86969 35.4833 8.59591 35.29C8.32369 35.0951 8.1141 34.8143 7.96716 34.4478C7.82177 34.0796 7.74907 33.6365 7.74907 33.1183C7.75062 32.6002 7.82409 32.1594 7.96948 31.7959C8.11642 31.4308 8.32601 31.1524 8.59823 30.9606C8.87201 30.7688 9.19914 30.6729 9.57964 30.6729C9.96014 30.6729 10.2873 30.7688 10.5611 30.9606C10.8348 31.1524 11.0444 31.4308 11.1898 31.7959C11.3367 32.1609 11.4102 32.6017 11.4102 33.1183C11.4102 33.638 11.3367 34.082 11.1898 34.4501C11.0444 34.8167 10.8348 35.0966 10.5611 35.29C10.2888 35.4833 9.96169 35.58 9.57964 35.58ZM9.57964 34.8538C9.87662 34.8538 10.111 34.7076 10.2826 34.4153C10.4559 34.1214 10.5425 33.6891 10.5425 33.1183C10.5425 32.7409 10.5031 32.4239 10.4242 32.1671C10.3453 31.9103 10.2339 31.717 10.0901 31.5871C9.94622 31.4556 9.77608 31.3899 9.57964 31.3899C9.28422 31.3899 9.05066 31.5368 8.87897 31.8307C8.70728 32.123 8.62066 32.5522 8.61911 33.1183C8.61757 33.4973 8.65546 33.8159 8.7328 34.0742C8.81168 34.3325 8.92305 34.5274 9.0669 34.6589C9.21074 34.7888 9.38166 34.8538 9.57964 34.8538ZM12.1904 35.4895V31.9258H13.0047V32.5198H13.0418C13.1068 32.314 13.2182 32.1555 13.3759 32.0441C13.5353 31.9312 13.717 31.8748 13.9212 31.8748C13.9676 31.8748 14.0194 31.8771 14.0766 31.8817C14.1354 31.8848 14.1841 31.8902 14.2228 31.898V32.6706C14.1872 32.6582 14.1307 32.6474 14.0534 32.6381C13.9776 32.6272 13.9042 32.6218 13.833 32.6218C13.6799 32.6218 13.5422 32.6551 13.42 32.7216C13.2994 32.7866 13.2042 32.877 13.1346 32.9931C13.065 33.1091 13.0302 33.2429 13.0302 33.3944V35.4895H12.1904ZM14.8179 35.4895V30.7379H15.6578V32.5151H15.6926C15.7359 32.4285 15.797 32.3365 15.8759 32.239C15.9547 32.14 16.0615 32.0557 16.196 31.9861C16.3306 31.915 16.5023 31.8794 16.7111 31.8794C16.9864 31.8794 17.2347 31.9498 17.4559 32.0905C17.6786 32.2297 17.8549 32.4362 17.9849 32.71C18.1163 32.9822 18.1821 33.3163 18.1821 33.7123C18.1821 34.1036 18.1179 34.4362 17.9895 34.7099C17.8611 34.9837 17.6863 35.1925 17.4651 35.3364C17.244 35.4802 16.9934 35.5521 16.7134 35.5521C16.5093 35.5521 16.3399 35.5181 16.2053 35.4501C16.0708 35.382 15.9625 35.3 15.8805 35.2041C15.8001 35.1067 15.7374 35.0147 15.6926 34.928H15.6439V35.4895H14.8179ZM15.6415 33.7077C15.6415 33.9381 15.674 34.14 15.739 34.3132C15.8055 34.4864 15.9006 34.6218 16.0244 34.7192C16.1496 34.8151 16.3012 34.8631 16.4791 34.8631C16.6647 34.8631 16.8202 34.8136 16.9454 34.7146C17.0707 34.614 17.1651 34.4772 17.2285 34.3039C17.2935 34.1291 17.3259 33.9304 17.3259 33.7077C17.3259 33.4865 17.2942 33.29 17.2308 33.1183C17.1674 32.9467 17.073 32.8121 16.9478 32.7146C16.8225 32.6172 16.6663 32.5685 16.4791 32.5685C16.2997 32.5685 16.1473 32.6156 16.022 32.71C15.8967 32.8044 15.8016 32.9366 15.7367 33.1067C15.6732 33.2769 15.6415 33.4772 15.6415 33.7077Z" fill="black"/>
<path d="M3.68886 94.4683V93.8465L5.33847 92.2293C5.49624 92.07 5.62771 91.9285 5.73289 91.8048C5.83807 91.681 5.91695 91.5612 5.96954 91.4451C6.02213 91.3291 6.04842 91.2054 6.04842 91.0739C6.04842 90.9239 6.01439 90.7955 5.94634 90.6888C5.87828 90.5805 5.7847 90.497 5.6656 90.4382C5.5465 90.3794 5.41116 90.3501 5.25958 90.3501C5.10336 90.3501 4.96647 90.3825 4.84892 90.4475C4.73137 90.5109 4.64011 90.6014 4.57515 90.719C4.51173 90.8365 4.48002 90.9765 4.48002 91.1389H3.66102C3.66102 90.8373 3.72985 90.5751 3.86751 90.3524C4.00517 90.1296 4.19465 89.9572 4.43594 89.835C4.67878 89.7128 4.95719 89.6517 5.27118 89.6517C5.58981 89.6517 5.86977 89.7112 6.11107 89.8303C6.35236 89.9494 6.53952 90.1126 6.67254 90.3199C6.8071 90.5272 6.87439 90.7638 6.87439 91.0298C6.87439 91.2077 6.84036 91.3825 6.7723 91.5542C6.70424 91.7259 6.58437 91.9161 6.41268 92.1249C6.24254 92.3338 6.00357 92.5866 5.69577 92.8836L4.87676 93.7165V93.749H6.94631V94.4683H3.68886ZM9.50308 94.5587C9.12103 94.5587 8.79312 94.4621 8.51935 94.2687C8.24712 94.0738 8.03754 93.7931 7.8906 93.4265C7.7452 93.0584 7.67251 92.6153 7.67251 92.0971C7.67405 91.5789 7.74752 91.1381 7.89292 90.7746C8.03986 90.4096 8.24944 90.1312 8.52167 89.9394C8.79544 89.7476 9.12258 89.6517 9.50308 89.6517C9.88358 89.6517 10.2107 89.7476 10.4845 89.9394C10.7583 90.1312 10.9678 90.4096 11.1132 90.7746C11.2602 91.1397 11.3337 91.5805 11.3337 92.0971C11.3337 92.6168 11.2602 93.0607 11.1132 93.4288C10.9678 93.7954 10.7583 94.0754 10.4845 94.2687C10.2123 94.4621 9.88513 94.5587 9.50308 94.5587ZM9.50308 93.8325C9.80005 93.8325 10.0344 93.6864 10.2061 93.394C10.3793 93.1002 10.4659 92.6678 10.4659 92.0971C10.4659 91.7197 10.4265 91.4026 10.3476 91.1459C10.2687 90.8891 10.1574 90.6957 10.0135 90.5658C9.86966 90.4343 9.69952 90.3686 9.50308 90.3686C9.20765 90.3686 8.97409 90.5156 8.8024 90.8094C8.63071 91.1018 8.5441 91.531 8.54255 92.0971C8.541 92.4761 8.5789 92.7947 8.65624 93.053C8.73512 93.3113 8.84649 93.5062 8.99033 93.6377C9.13418 93.7676 9.3051 93.8325 9.50308 93.8325ZM12.1138 94.4683V90.9046H12.9282V91.4985H12.9653C13.0302 91.2928 13.1416 91.1343 13.2994 91.0229C13.4587 90.91 13.6404 90.8535 13.8446 90.8535C13.891 90.8535 13.9428 90.8558 14 90.8605C14.0588 90.8636 14.1075 90.869 14.1462 90.8767V91.6493C14.1106 91.6369 14.0542 91.6261 13.9768 91.6168C13.9011 91.606 13.8276 91.6006 13.7564 91.6006C13.6033 91.6006 13.4656 91.6339 13.3435 91.7004C13.2228 91.7653 13.1277 91.8558 13.0581 91.9718C12.9885 92.0878 12.9537 92.2216 12.9537 92.3732V94.4683H12.1138ZM14.7413 94.4683V89.7167H15.5812V91.4939H15.616C15.6593 91.4073 15.7204 91.3152 15.7993 91.2178C15.8782 91.1188 15.9849 91.0345 16.1195 90.9649C16.254 90.8937 16.4257 90.8582 16.6345 90.8582C16.9099 90.8582 17.1581 90.9285 17.3793 91.0693C17.602 91.2085 17.7784 91.415 17.9083 91.6888C18.0398 91.961 18.1055 92.2951 18.1055 92.6911C18.1055 93.0824 18.0413 93.4149 17.9129 93.6887C17.7845 93.9625 17.6098 94.1713 17.3886 94.3151C17.1674 94.459 16.9168 94.5309 16.6369 94.5309C16.4327 94.5309 16.2633 94.4969 16.1288 94.4288C15.9942 94.3608 15.8859 94.2788 15.8039 94.1829C15.7235 94.0854 15.6609 93.9934 15.616 93.9068H15.5673V94.4683H14.7413ZM15.565 92.6864C15.565 92.9169 15.5975 93.1187 15.6624 93.292C15.7289 93.4652 15.824 93.6005 15.9478 93.698C16.0731 93.7939 16.2247 93.8418 16.4025 93.8418C16.5881 93.8418 16.7436 93.7923 16.8689 93.6933C16.9942 93.5928 17.0885 93.4559 17.1519 93.2827C17.2169 93.1079 17.2494 92.9091 17.2494 92.6864C17.2494 92.4652 17.2177 92.2688 17.1543 92.0971C17.0908 91.9254 16.9965 91.7908 16.8712 91.6934C16.7459 91.596 16.5897 91.5472 16.4025 91.5472C16.2231 91.5472 16.0708 91.5944 15.9455 91.6888C15.8202 91.7831 15.7251 91.9154 15.6601 92.0855C15.5967 92.2556 15.565 92.4559 15.565 92.6864Z" fill="black"/>
<path d="M5.39415 75.6926C5.06005 75.6926 4.76308 75.6354 4.50322 75.521C4.24492 75.4065 4.04075 75.2472 3.89071 75.043C3.74068 74.8388 3.66102 74.603 3.65174 74.3354H4.52411C4.53184 74.4638 4.57437 74.5759 4.65171 74.6718C4.72905 74.7661 4.83191 74.8396 4.96029 74.8922C5.08867 74.9448 5.23252 74.9711 5.39183 74.9711C5.56197 74.9711 5.71278 74.9417 5.84425 74.8829C5.97573 74.8226 6.07859 74.7391 6.15283 74.6324C6.22707 74.5256 6.26342 74.4027 6.26187 74.2635C6.26342 74.1196 6.2263 73.9928 6.15051 73.883C6.07472 73.7731 5.9649 73.6873 5.82105 73.6254C5.67875 73.5636 5.50706 73.5326 5.30599 73.5326H4.88604V72.8691H5.30599C5.47149 72.8691 5.61611 72.8405 5.73985 72.7832C5.86513 72.726 5.96335 72.6456 6.0345 72.5419C6.10565 72.4367 6.14045 72.3153 6.13891 72.1777C6.14045 72.0431 6.11029 71.9263 6.04842 71.8273C5.9881 71.7268 5.90226 71.6487 5.79089 71.593C5.68107 71.5373 5.55192 71.5095 5.40343 71.5095C5.25804 71.5095 5.12347 71.5358 4.99973 71.5884C4.87599 71.6409 4.77623 71.716 4.70043 71.8134C4.62464 71.9093 4.58443 72.0238 4.57979 72.1568H3.75151C3.75769 71.8907 3.83426 71.6572 3.9812 71.4561C4.12969 71.2535 4.32767 71.0957 4.57515 70.9828C4.82263 70.8683 5.10027 70.8111 5.40807 70.8111C5.72515 70.8111 6.00047 70.8707 6.23403 70.9898C6.46914 71.1073 6.65088 71.2659 6.77926 71.4654C6.90764 71.6649 6.97183 71.8853 6.97183 72.1266C6.97338 72.3942 6.89449 72.6185 6.73518 72.7995C6.57741 72.9804 6.37015 73.0988 6.11339 73.1544V73.1916C6.44748 73.238 6.70347 73.3617 6.88135 73.5628C7.06077 73.7623 7.14971 74.0106 7.14816 74.3075C7.14816 74.5736 7.07237 74.8118 6.92079 75.0221C6.77075 75.2309 6.56349 75.3949 6.299 75.514C6.03605 75.6331 5.73443 75.6926 5.39415 75.6926ZM9.70087 75.7182C9.31882 75.7182 8.99091 75.6215 8.71714 75.4282C8.44491 75.2333 8.23533 74.9525 8.08839 74.586C7.94299 74.2178 7.8703 73.7747 7.8703 73.2565C7.87184 72.7384 7.94531 72.2975 8.09071 71.9341C8.23765 71.569 8.44723 71.2906 8.71946 71.0988C8.99323 70.907 9.32037 70.8111 9.70087 70.8111C10.0814 70.8111 10.4085 70.907 10.6823 71.0988C10.9561 71.2906 11.1656 71.569 11.311 71.9341C11.458 72.2991 11.5314 72.7399 11.5314 73.2565C11.5314 73.7762 11.458 74.2201 11.311 74.5883C11.1656 74.9549 10.9561 75.2348 10.6823 75.4282C10.4101 75.6215 10.0829 75.7182 9.70087 75.7182ZM9.70087 74.992C9.99784 74.992 10.2322 74.8458 10.4039 74.5535C10.5771 74.2596 10.6637 73.8273 10.6637 73.2565C10.6637 72.8791 10.6243 72.562 10.5454 72.3053C10.4665 72.0485 10.3551 71.8552 10.2113 71.7252C10.0674 71.5938 9.89731 71.528 9.70087 71.528C9.40544 71.528 9.17188 71.675 9.00019 71.9689C8.8285 72.2612 8.74189 72.6904 8.74034 73.2565C8.73879 73.6355 8.77669 73.9541 8.85403 74.2124C8.93291 74.4707 9.04428 74.6656 9.18812 74.7971C9.33197 74.927 9.50289 74.992 9.70087 74.992ZM12.3116 75.6277V72.064H13.1259V72.6579H13.1631C13.228 72.4522 13.3394 72.2937 13.4972 72.1823C13.6565 72.0694 13.8382 72.0129 14.0424 72.0129C14.0888 72.0129 14.1406 72.0153 14.1978 72.0199C14.2566 72.023 14.3053 72.0284 14.344 72.0361V72.8087C14.3084 72.7964 14.252 72.7855 14.1746 72.7763C14.0988 72.7654 14.0254 72.76 13.9542 72.76C13.8011 72.76 13.6634 72.7933 13.5412 72.8598C13.4206 72.9247 13.3255 73.0152 13.2559 73.1312C13.1863 73.2472 13.1515 73.381 13.1515 73.5326V75.6277H12.3116ZM14.9391 75.6277V70.8761H15.779V72.6533H15.8138C15.8571 72.5667 15.9182 72.4746 15.9971 72.3772C16.076 72.2782 16.1827 72.1939 16.3173 72.1243C16.4518 72.0532 16.6235 72.0176 16.8323 72.0176C17.1077 72.0176 17.3559 72.088 17.5771 72.2287C17.7998 72.3679 17.9762 72.5744 18.1061 72.8482C18.2376 73.1204 18.3033 73.4545 18.3033 73.8505C18.3033 74.2418 18.2391 74.5744 18.1107 74.8481C17.9823 75.1219 17.8076 75.3307 17.5864 75.4746C17.3652 75.6184 17.1146 75.6903 16.8347 75.6903C16.6305 75.6903 16.4611 75.6563 16.3265 75.5882C16.192 75.5202 16.0837 75.4382 16.0017 75.3423C15.9213 75.2449 15.8587 75.1528 15.8138 75.0662H15.7651V75.6277H14.9391ZM15.7628 73.8458C15.7628 74.0763 15.7952 74.2782 15.8602 74.4514C15.9267 74.6246 16.0218 74.76 16.1456 74.8574C16.2709 74.9533 16.4224 75.0013 16.6003 75.0013C16.7859 75.0013 16.9414 74.9518 17.0667 74.8528C17.192 74.7522 17.2863 74.6153 17.3497 74.4421C17.4147 74.2673 17.4472 74.0686 17.4472 73.8458C17.4472 73.6247 17.4155 73.4282 17.352 73.2565C17.2886 73.0848 17.1943 72.9503 17.069 72.8528C16.9437 72.7554 16.7875 72.7067 16.6003 72.7067C16.4209 72.7067 16.2685 72.7538 16.1433 72.8482C16.018 72.9425 15.9228 73.0748 15.8579 73.2449C15.7945 73.4151 15.7628 73.6154 15.7628 73.8458Z" fill="black"/>
<path d="M3.60302 55.0866V54.4022L5.6192 51.2167H6.18995V52.1911H5.84193L4.48466 54.3419V54.379H7.29897V55.0866H3.60302ZM5.86977 55.9683V54.8778L5.87905 54.5716V51.2167H6.6911V55.9683H5.86977ZM9.79657 56.0587C9.41453 56.0587 9.08662 55.9621 8.81284 55.7687C8.54062 55.5738 8.33103 55.2931 8.18409 54.9265C8.0387 54.5584 7.966 54.1153 7.966 53.5971C7.96755 53.0789 8.04102 52.6381 8.18641 52.2746C8.33335 51.9096 8.54294 51.6312 8.81516 51.4394C9.08894 51.2476 9.41608 51.1517 9.79657 51.1517C10.1771 51.1517 10.5042 51.2476 10.778 51.4394C11.0518 51.6312 11.2613 51.9096 11.4067 52.2746C11.5537 52.6397 11.6271 53.0805 11.6271 53.5971C11.6271 54.1168 11.5537 54.5607 11.4067 54.9288C11.2613 55.2954 11.0518 55.5754 10.778 55.7687C10.5058 55.9621 10.1786 56.0587 9.79657 56.0587ZM9.79657 55.3325C10.0935 55.3325 10.3279 55.1864 10.4996 54.894C10.6728 54.6002 10.7594 54.1678 10.7594 53.5971C10.7594 53.2197 10.72 52.9026 10.6411 52.6459C10.5622 52.3891 10.4508 52.1957 10.307 52.0658C10.1632 51.9343 9.99301 51.8686 9.79657 51.8686C9.50115 51.8686 9.26759 52.0156 9.0959 52.3094C8.92421 52.6018 8.83759 53.031 8.83605 53.5971C8.8345 53.9761 8.87239 54.2947 8.94973 54.553C9.02862 54.8113 9.13998 55.0062 9.28383 55.1377C9.42768 55.2676 9.59859 55.3325 9.79657 55.3325ZM12.4073 55.9683V52.4046H13.2216V52.9985H13.2588C13.3237 52.7928 13.4351 52.6343 13.5929 52.5229C13.7522 52.41 13.9339 52.3535 14.1381 52.3535C14.1845 52.3535 14.2363 52.3558 14.2935 52.3605C14.3523 52.3636 14.401 52.369 14.4397 52.3767V53.1493C14.4041 53.1369 14.3477 53.1261 14.2703 53.1168C14.1946 53.106 14.1211 53.1006 14.0499 53.1006C13.8968 53.1006 13.7591 53.1339 13.637 53.2004C13.5163 53.2653 13.4212 53.3558 13.3516 53.4718C13.282 53.5878 13.2472 53.7216 13.2472 53.8732V55.9683H12.4073ZM15.0348 55.9683V51.2167H15.8747V52.9939H15.9095C15.9528 52.9073 16.0139 52.8152 16.0928 52.7178C16.1717 52.6188 16.2784 52.5345 16.413 52.4649C16.5475 52.3937 16.7192 52.3582 16.928 52.3582C17.2034 52.3582 17.4516 52.4285 17.6728 52.5693C17.8955 52.7085 18.0719 52.915 18.2018 53.1888C18.3333 53.461 18.399 53.7951 18.399 54.1911C18.399 54.5824 18.3348 54.9149 18.2064 55.1887C18.078 55.4625 17.9033 55.6713 17.6821 55.8151C17.4609 55.959 17.2103 56.0309 16.9304 56.0309C16.7262 56.0309 16.5568 55.9969 16.4223 55.9288C16.2877 55.8608 16.1794 55.7788 16.0974 55.6829C16.017 55.5854 15.9544 55.4934 15.9095 55.4068H15.8608V55.9683H15.0348ZM15.8585 54.1864C15.8585 54.4169 15.8909 54.6187 15.9559 54.792C16.0224 54.9652 16.1175 55.1005 16.2413 55.198C16.3666 55.2939 16.5182 55.3418 16.696 55.3418C16.8816 55.3418 17.0371 55.2923 17.1624 55.1933C17.2877 55.0928 17.382 54.9559 17.4454 54.7827C17.5104 54.6079 17.5429 54.4091 17.5429 54.1864C17.5429 53.9652 17.5112 53.7688 17.4477 53.5971C17.3843 53.4254 17.29 53.2908 17.1647 53.1934C17.0394 53.096 16.8832 53.0472 16.696 53.0472C16.5166 53.0472 16.3643 53.0944 16.239 53.1888C16.1137 53.2831 16.0186 53.4154 15.9536 53.5855C15.8902 53.7556 15.8585 53.9559 15.8585 54.1864Z" fill="black"/>
<path d="M2.35492 10.2591V15.0107H1.49416V11.0967H1.46631L0.354978 11.8067V11.0178L1.53592 10.2591H2.35492ZM5.31771 15.1012C4.93567 15.1012 4.60775 15.0046 4.33398 14.8112C4.06175 14.6163 3.85217 14.3356 3.70523 13.969C3.55983 13.6009 3.48714 13.1577 3.48714 12.6396C3.48868 12.1214 3.56216 11.6806 3.70755 11.3171C3.85449 10.9521 4.06407 10.6737 4.3363 10.4819C4.61008 10.2901 4.93721 10.1942 5.31771 10.1942C5.69821 10.1942 6.02535 10.2901 6.29912 10.4819C6.5729 10.6737 6.78248 10.9521 6.92787 11.3171C7.07481 11.6821 7.14828 12.123 7.14828 12.6396C7.14828 13.1593 7.07481 13.6032 6.92787 13.9713C6.78248 14.3379 6.5729 14.6179 6.29912 14.8112C6.02689 15.0046 5.69976 15.1012 5.31771 15.1012ZM5.31771 14.375C5.61469 14.375 5.84902 14.2289 6.02071 13.9365C6.19394 13.6426 6.28056 13.2103 6.28056 12.6396C6.28056 12.2622 6.24112 11.9451 6.16223 11.6883C6.08335 11.4316 5.97198 11.2382 5.82814 11.1083C5.68429 10.9768 5.51415 10.9111 5.31771 10.9111C5.02228 10.9111 4.78872 11.058 4.61704 11.3519C4.44535 11.6443 4.35873 12.0735 4.35718 12.6396C4.35564 13.0185 4.39353 13.3372 4.47087 13.5955C4.54975 13.8538 4.66112 14.0487 4.80497 14.1801C4.94881 14.3101 5.11973 14.375 5.31771 14.375ZM9.67547 15.1012C9.29343 15.1012 8.96552 15.0046 8.69174 14.8112C8.41952 14.6163 8.20993 14.3356 8.06299 13.969C7.9176 13.6009 7.8449 13.1577 7.8449 12.6396C7.84645 12.1214 7.91992 11.6806 8.06531 11.3171C8.21225 10.9521 8.42184 10.6737 8.69406 10.4819C8.96784 10.2901 9.29497 10.1942 9.67547 10.1942C10.056 10.1942 10.3831 10.2901 10.6569 10.4819C10.9307 10.6737 11.1402 10.9521 11.2856 11.3171C11.4326 11.6821 11.506 12.123 11.506 12.6396C11.506 13.1593 11.4326 13.6032 11.2856 13.9713C11.1402 14.3379 10.9307 14.6179 10.6569 14.8112C10.3847 15.0046 10.0575 15.1012 9.67547 15.1012ZM9.67547 14.375C9.97245 14.375 10.2068 14.2289 10.3785 13.9365C10.5517 13.6426 10.6383 13.2103 10.6383 12.6396C10.6383 12.2622 10.5989 11.9451 10.52 11.6883C10.4411 11.4316 10.3297 11.2382 10.1859 11.1083C10.0421 10.9768 9.87191 10.9111 9.67547 10.9111C9.38005 10.9111 9.14649 11.058 8.9748 11.3519C8.80311 11.6443 8.71649 12.0735 8.71494 12.6396C8.7134 13.0185 8.75129 13.3372 8.82863 13.5955C8.90751 13.8538 9.01888 14.0487 9.16273 14.1801C9.30657 14.3101 9.47749 14.375 9.67547 14.375ZM12.2862 15.0107V11.447H13.1005V12.041H13.1377C13.2026 11.8353 13.314 11.6767 13.4718 11.5654C13.6311 11.4525 13.8128 11.396 14.017 11.396C14.0634 11.396 14.1152 11.3983 14.1724 11.403C14.2312 11.4061 14.2799 11.4115 14.3186 11.4192V12.1918C14.283 12.1794 14.2266 12.1686 14.1492 12.1593C14.0735 12.1485 14 12.1431 13.9288 12.1431C13.7757 12.1431 13.638 12.1763 13.5158 12.2428C13.3952 12.3078 13.3001 12.3983 13.2305 12.5143C13.1609 12.6303 13.1261 12.7641 13.1261 12.9157V15.0107H12.2862ZM14.9137 15.0107V10.2591H15.7536V12.0364H15.7884C15.8317 11.9497 15.8928 11.8577 15.9717 11.7603C16.0506 11.6613 16.1573 11.577 16.2919 11.5074C16.4264 11.4362 16.5981 11.4006 16.8069 11.4006C17.0823 11.4006 17.3305 11.471 17.5517 11.6118C17.7744 11.751 17.9508 11.9575 18.0807 12.2312C18.2122 12.5035 18.2779 12.8376 18.2779 13.2335C18.2779 13.6249 18.2137 13.9574 18.0853 14.2312C17.9569 14.505 17.7822 14.7138 17.561 14.8576C17.3398 15.0015 17.0892 15.0734 16.8093 15.0734C16.6051 15.0734 16.4357 15.0394 16.3012 14.9713C16.1666 14.9032 16.0583 14.8213 15.9763 14.7254C15.8959 14.6279 15.8333 14.5359 15.7884 14.4493H15.7397V15.0107H14.9137ZM15.7374 13.2289C15.7374 13.4594 15.7698 13.6612 15.8348 13.8344C15.9013 14.0077 15.9964 14.143 16.1202 14.2405C16.2455 14.3364 16.397 14.3843 16.5749 14.3843C16.7605 14.3843 16.916 14.3348 17.0413 14.2358C17.1666 14.1353 17.2609 13.9984 17.3243 13.8252C17.3893 13.6504 17.4218 13.4516 17.4218 13.2289C17.4218 13.0077 17.3901 12.8113 17.3266 12.6396C17.2632 12.4679 17.1689 12.3333 17.0436 12.2359C16.9183 12.1384 16.7621 12.0897 16.5749 12.0897C16.3955 12.0897 16.2431 12.1369 16.1179 12.2312C15.9926 12.3256 15.8975 12.4578 15.8325 12.628C15.7691 12.7981 15.7374 12.9984 15.7374 13.2289Z" fill="black"/>
<line opacity="0.7" x1="24.9088" y1="153.592" x2="241.329" y2="153.592" stroke="#A0A0A0" stroke-width="0.816682" stroke-linecap="round"/>
<path d="M24.5005 154C24.5005 154 63.6949 104.501 80.3734 104.501C97.0519 104.501 126.03 124.137 141.667 124.137C157.304 124.137 196.835 55.825 215.052 59.0923C233.27 62.3597 241.738 89.3645 241.738 89.3645V154H24.5005Z" fill="url(#paint0_linear_0_273)" stroke="#FE8C1E" stroke-width="0.816682"/>
<line opacity="0.7" x1="24.0921" y1="152.773" x2="24.0921" y2="0.408401" stroke="#C9C9C9" stroke-opacity="0.76" stroke-width="0.816682" stroke-linecap="round" stroke-dasharray="4.9 4.9"/>
<line opacity="0.7" x1="25.7252" y1="104.443" x2="79.6262" y2="104.443" stroke="#C9C9C9" stroke-opacity="0.76" stroke-width="0.816682" stroke-linecap="round" stroke-dasharray="4.9 4.9"/>
<line opacity="0.7" x1="25.7252" y1="58.5704" x2="212.745" y2="58.5704" stroke="#C9C9C9" stroke-opacity="0.76" stroke-width="0.816682" stroke-linecap="round" stroke-dasharray="4.9 4.9"/>
<defs>
<linearGradient id="paint0_linear_0_273" x1="113.11" y1="65.1224" x2="133.234" y2="153.974" gradientUnits="userSpaceOnUse">
<stop stop-color="#FE8C1E"/>
<stop offset="1" stop-color="white" stop-opacity="0"/>
</linearGradient>
</defs>
</svg>
