<svg width="19" height="18" viewBox="0 0 19 18" fill="none" xmlns="http://www.w3.org/2000/svg">
<path fill-rule="evenodd" clip-rule="evenodd" d="M9.4727 1.67208C9.6157 1.85831 9.64363 2.06249 9.64363 2.20016C9.64363 3.72722 10.048 5.11128 11.0377 6.11091C11.2175 6.29234 11.4008 6.47017 11.5877 6.64431C12.1025 7.12784 12.7676 7.75302 13.0662 8.59969C13.2192 9.03466 13.3016 9.49756 13.3016 9.97643C13.3016 12.6401 10.8195 14.6321 7.9809 14.6321C5.88719 14.6321 4.02626 13.5679 3.16097 11.9531C2.8337 11.3453 2.66167 10.6661 2.66016 9.97576V9.40179C2.66016 8.39417 2.81246 7.39188 3.11175 6.42882C3.17627 6.21733 3.26938 5.96193 3.43432 5.7777C3.5281 5.67328 3.69371 5.53693 3.9378 5.50701C4.18854 5.47641 4.38607 5.57351 4.50446 5.66131C4.70332 5.80829 4.8237 6.03309 4.88755 6.15747C4.96603 6.31243 5.04318 6.49666 5.11501 6.67491C5.19283 6.86712 5.3039 7.05069 5.44224 7.22228C5.52471 7.32404 5.59255 7.40984 5.6544 7.48765L5.78077 7.64661C5.85543 7.53843 5.90122 7.41298 5.91379 7.28214L6.04415 5.83024C6.11199 5.07004 6.25166 4.22737 6.56558 3.46783C6.88217 2.70231 7.39096 1.98334 8.21368 1.54438C8.36 1.46657 8.6267 1.33953 8.91935 1.3688C9.09959 1.38676 9.31574 1.46856 9.4727 1.67208ZM8.35535 3.08474C8.12522 3.32151 7.94166 3.6208 7.79534 3.97596C7.55524 4.55725 7.43153 5.24828 7.36835 5.94863L7.23866 7.40052C7.21205 7.69716 7.12226 7.98448 6.97594 8.24386C6.78972 8.57508 6.48178 8.88235 6.07275 8.99608C5.6125 9.12378 5.14494 8.96815 4.82437 8.5784C4.75919 8.49859 4.68004 8.39949 4.5989 8.29774L4.40802 8.0583C4.31821 7.94628 4.23451 7.8295 4.15728 7.70846C4.04609 8.26604 3.99018 8.83323 3.99034 9.40179V9.97643C3.99034 10.4553 4.11139 10.9109 4.33353 11.3259C4.94009 12.4572 6.31684 13.3019 7.9809 13.3019C10.2848 13.3019 11.9715 11.7203 11.9715 9.97643C11.9715 9.6512 11.9156 9.33794 11.8118 9.04197C11.6256 8.51655 11.2033 8.11417 10.6413 7.58143L10.5116 7.45706C10.3755 7.32803 10.2358 7.19124 10.0926 7.0467C8.99982 5.94264 8.49502 4.53264 8.35535 3.08474Z" fill="#FE8C1E"/>
<path fill-rule="evenodd" clip-rule="evenodd" d="M8.69453 10.21L9.31705 11.1185L9.32703 11.1318C9.71677 11.6712 9.57577 12.432 9.03505 12.7892C8.85801 12.9073 8.64995 12.9703 8.43713 12.9703C8.22431 12.9703 8.01626 12.9073 7.83922 12.7892M8.69453 10.21L8.67657 10.2452L8.6646 10.2685C8.46592 10.6611 8.17182 10.9975 7.80929 11.2468L7.71418 11.312C7.51731 11.4477 7.42952 11.5481 7.39493 11.6279C7.29717 11.8501 7.2965 12.0496 7.35835 12.2265C7.4222 12.4088 7.56985 12.6109 7.83922 12.7892M7.54524 9.52824C7.56786 9.4338 7.58715 9.31142 7.61042 9.16709C7.62373 9.07841 7.63924 8.98264 7.65698 8.87977C7.67693 8.76937 7.70354 8.62571 7.74145 8.51131C7.75142 8.47939 7.76739 8.43682 7.78933 8.39093C7.80729 8.35302 7.85052 8.26855 7.931 8.18675C8.0019 8.11423 8.08806 8.0584 8.18322 8.02334C8.27839 7.98827 8.38017 7.97483 8.48117 7.984C8.58218 7.99317 8.67987 8.02472 8.76717 8.07635C8.85446 8.12799 8.92916 8.19842 8.98584 8.28252L10.4098 10.3596C11.2312 11.5036 10.9459 13.1211 9.76799 13.8992C9.37347 14.1609 8.91055 14.3005 8.43713 14.3005C7.96372 14.3005 7.5008 14.1609 7.10628 13.8992C6.63673 13.5893 6.27891 13.1676 6.10266 12.6655C5.92441 12.1574 5.94969 11.6093 6.17582 11.0939C6.36271 10.6682 6.70257 10.3935 6.96063 10.2159L7.05574 10.1508C7.23465 10.0277 7.37964 9.86145 7.47741 9.66791L7.51265 9.5994L7.5346 9.55285L7.54524 9.52824Z" fill="#FE8C1E"/>
</svg>
