<svg width="232" height="143" viewBox="0 0 232 143" fill="none" xmlns="http://www.w3.org/2000/svg">
<circle cx="111.444" cy="133.42" r="8.92151" transform="rotate(-180 111.444 133.42)" fill="#FF9600"/>
<circle cx="111.444" cy="19.6707" r="8.92151" transform="rotate(-180 111.444 19.6707)" fill="#FF9600"/>
<circle cx="-0.078249" cy="19.6707" r="8.92151" transform="rotate(-180 -0.078249 19.6707)" fill="#FF9600"/>
<circle cx="-0.078249" cy="133.42" r="8.92151" transform="rotate(-180 -0.078249 133.42)" fill="#FF9600"/>
<path d="M111.443 17.4404L111.443 131.19L-0.0760117 131.19L-0.0760117 17.4404L111.443 17.4404Z" stroke="#FE8C1E" stroke-width="2.23038"/>
<circle cx="111.444" cy="19.6707" r="8.92151" transform="rotate(-180 111.444 19.6707)" fill="#FF9600"/>
<circle cx="-0.078249" cy="19.6707" r="8.92151" transform="rotate(-180 -0.078249 19.6707)" fill="#FF9600"/>
<path d="M111.443 -96.3088L111.443 17.4405L-0.0760117 17.4405L-0.0760117 -96.3088L111.443 -96.3088Z" stroke="#FE8C1E" stroke-width="2.23038"/>
<circle cx="222.961" cy="19.6707" r="8.92151" transform="rotate(-180 222.961 19.6707)" fill="#FF9600"/>
</svg>
