<svg width="18" height="18" viewBox="0 0 18 18" fill="none" xmlns="http://www.w3.org/2000/svg">
<path d="M0.78125 17.1875C0.574889 17.1848 0.377738 17.1016 0.231806 16.9557C0.0858741 16.8098 0.00269788 16.6126 0 16.4062V0.78125C0 0.57405 0.0823099 0.375336 0.228823 0.228823C0.375336 0.0823099 0.57405 0 0.78125 0C0.98845 0 1.18716 0.0823099 1.33368 0.228823C1.48019 0.375336 1.5625 0.57405 1.5625 0.78125V16.4062C1.5598 16.6126 1.47663 16.8098 1.33069 16.9557C1.18476 17.1016 0.987611 17.1848 0.78125 17.1875Z" fill="#FFC22F"/>
<path d="M16.4062 17.1874H0.78125C0.57405 17.1874 0.375336 17.1051 0.228823 16.9586C0.0823099 16.812 0 16.6133 0 16.4061C0 16.1989 0.0823099 16.0002 0.228823 15.8537C0.375336 15.7072 0.57405 15.6249 0.78125 15.6249H16.4062C16.6134 15.6249 16.8122 15.7072 16.9587 15.8537C17.1052 16.0002 17.1875 16.1989 17.1875 16.4061C17.1875 16.6133 17.1052 16.812 16.9587 16.9586C16.8122 17.1051 16.6134 17.1874 16.4062 17.1874ZM10.6771 11.4582C10.5744 11.4587 10.4727 11.4387 10.3779 11.3993C10.2831 11.36 10.1971 11.3021 10.125 11.229L7.55208 8.65613L4.97917 11.229C4.83107 11.367 4.63519 11.4422 4.43279 11.4386C4.23039 11.435 4.03728 11.353 3.89414 11.2099C3.75101 11.0668 3.66901 10.8737 3.66544 10.6713C3.66187 10.4689 3.737 10.273 3.875 10.1249L7 6.99988C7.14648 6.85358 7.34505 6.7714 7.55208 6.7714C7.75911 6.7714 7.95768 6.85358 8.10417 6.99988L10.6771 9.5728L14.2917 5.95821C14.4398 5.82021 14.6356 5.74509 14.838 5.74866C15.0404 5.75223 15.2336 5.83422 15.3767 5.97736C15.5198 6.1205 15.6018 6.31361 15.6054 6.516C15.609 6.7184 15.5338 6.91428 15.3958 7.06238L11.2292 11.229C11.157 11.3021 11.071 11.36 10.9762 11.3993C10.8814 11.4387 10.7797 11.4587 10.6771 11.4582Z" fill="#FFC22F"/>
<path d="M15.3646 10.5106C15.1582 10.5079 14.9611 10.4247 14.8151 10.2788C14.6692 10.1328 14.586 9.93569 14.5833 9.72933V6.771H11.7188C11.5115 6.771 11.3128 6.68869 11.1663 6.54217C11.0198 6.39566 10.9375 6.19695 10.9375 5.98975C10.9375 5.78255 11.0198 5.58383 11.1663 5.43732C11.3128 5.29081 11.5115 5.2085 11.7188 5.2085H15.3646C15.5709 5.21119 15.7681 5.29437 15.914 5.4403C16.06 5.58623 16.1431 5.78338 16.1458 5.98975V9.72933C16.1431 9.93569 16.06 10.1328 15.914 10.2788C15.7681 10.4247 15.5709 10.5079 15.3646 10.5106Z" fill="#FFC22F"/>
</svg>
