<svg width="39" height="36" viewBox="0 0 39 36" fill="none" xmlns="http://www.w3.org/2000/svg">
<path d="M26.876 13.7109C33.5685 20.8632 38.8434 34.7891 19.252 34.7891C-0.338602 34.7889 4.81067 21.1172 11.5566 13.7158L11.7441 13.8105C16.2341 16.0753 22.1899 16.0755 26.6797 13.8105L26.876 13.7109ZM21.4756 20.3203C21.1977 20.3204 20.9492 20.3796 20.7305 20.498C20.5163 20.6119 20.3477 20.7556 20.2246 20.9287V20.3818H19.2676V25.9746H20.2246V23.6299C20.3568 23.803 20.5277 23.9466 20.7373 24.0605C20.9515 24.1745 21.1977 24.2314 21.4756 24.2314C21.7992 24.2314 22.0917 24.1494 22.3516 23.9854C22.6158 23.8213 22.8233 23.5911 22.9736 23.2949C23.1285 22.9942 23.206 22.65 23.2061 22.2627C23.2061 21.8755 23.1284 21.5358 22.9736 21.2441C22.8232 20.9479 22.6159 20.7191 22.3516 20.5596C22.0917 20.4 21.7992 20.3203 21.4756 20.3203ZM14.8877 19.3975V24.1699H15.8447V22.3105H16.2959L17.3486 24.1699H18.4561L17.3145 22.2354C17.6744 22.1397 17.9456 21.9663 18.1279 21.7158C18.3103 21.4606 18.4014 21.1749 18.4014 20.8604C18.4013 20.587 18.3352 20.3407 18.2031 20.1221C18.0755 19.8989 17.8818 19.7233 17.6221 19.5957C17.3623 19.4636 17.0478 19.3975 16.6787 19.3975H14.8877ZM21.2227 21.1621C21.4004 21.1621 21.5644 21.2054 21.7148 21.292C21.8698 21.3786 21.9928 21.5062 22.084 21.6748C22.1797 21.8389 22.2275 22.0348 22.2275 22.2627C22.2275 22.4951 22.1797 22.6957 22.084 22.8643C21.9928 23.0328 21.8697 23.1628 21.7148 23.2539C21.5645 23.3449 21.4003 23.3906 21.2227 23.3906C21.0495 23.3906 20.8854 23.3473 20.7305 23.2607C20.5801 23.1696 20.457 23.0397 20.3613 22.8711C20.2702 22.7025 20.2246 22.5042 20.2246 22.2764C20.2246 22.0486 20.2703 21.8502 20.3613 21.6816C20.457 21.5131 20.5802 21.3854 20.7305 21.2988C20.8854 21.2077 21.0495 21.1622 21.2227 21.1621ZM16.6445 20.1904C16.9042 20.1904 17.098 20.2521 17.2256 20.375C17.3531 20.4934 17.4169 20.6623 17.417 20.8809C17.417 21.1042 17.3532 21.2806 17.2256 21.4082C17.098 21.5311 16.9042 21.5928 16.6445 21.5928H15.8447V20.1904H16.6445ZM19.252 5.95801C22.8007 5.95801 26.0193 7.10833 27.96 8.07422C28.4258 8.30203 28.8776 8.55828 29.3125 8.84082L27.2148 11.9082L26.0303 12.5234C21.948 14.5826 16.4741 14.5825 12.3926 12.5234L11.3477 12.1074L9.12988 8.84082C9.33485 8.70553 9.59296 8.5516 9.89551 8.38672C10.0481 8.30295 10.2126 8.21694 10.3887 8.12891C12.3389 7.15264 15.6345 5.95811 19.252 5.95801ZM19.2529 7.39941C16.3193 7.39947 13.5974 8.26097 11.7705 9.07227C12.5325 9.31276 13.3085 9.50749 14.0938 9.65527C15.822 9.9748 17.5631 10.0207 19.0527 9.58984C20.9461 9.04281 22.9338 8.59882 24.7959 8.33691C23.2069 7.81311 21.2849 7.39941 19.2529 7.39941Z" fill="#005587"/>
</svg>
