<svg width="15" height="15" viewBox="0 0 15 15" fill="none" xmlns="http://www.w3.org/2000/svg">
<path d="M5 1.25H10C10.9946 1.25 11.9484 1.64509 12.6517 2.34835C13.3549 3.05161 13.75 4.00544 13.75 5V10C13.75 10.9946 13.3549 11.9484 12.6517 12.6517C11.9484 13.3549 10.9946 13.75 10 13.75H5C4.00544 13.75 3.05161 13.3549 2.34835 12.6517C1.64509 11.9484 1.25 10.9946 1.25 10L1.25 5C1.25 4.00544 1.64509 3.05161 2.34835 2.34835C3.05161 1.64509 4.00544 1.25 5 1.25ZM8.75 6.875C8.58424 6.875 8.42527 6.94085 8.30806 7.05806C8.19085 7.17527 8.125 7.33424 8.125 7.5C8.125 7.66576 8.19085 7.82473 8.30806 7.94194C8.42527 8.05915 8.58424 8.125 8.75 8.125H10.625C10.7908 8.125 10.9497 8.05915 11.0669 7.94194C11.1842 7.82473 11.25 7.66576 11.25 7.5C11.25 7.33424 11.1842 7.17527 11.0669 7.05806C10.9497 6.94085 10.7908 6.875 10.625 6.875H8.75ZM7.5 9.375C7.33424 9.375 7.17527 9.44085 7.05806 9.55806C6.94085 9.67527 6.875 9.83424 6.875 10C6.875 10.1658 6.94085 10.3247 7.05806 10.4419C7.17527 10.5592 7.33424 10.625 7.5 10.625H10.625C10.7908 10.625 10.9497 10.5592 11.0669 10.4419C11.1842 10.3247 11.25 10.1658 11.25 10C11.25 9.83424 11.1842 9.67527 11.0669 9.55806C10.9497 9.44085 10.7908 9.375 10.625 9.375H7.5ZM7.5 4.375C7.33424 4.375 7.17527 4.44085 7.05806 4.55806C6.94085 4.67527 6.875 4.83424 6.875 5C6.875 5.16576 6.94085 5.32473 7.05806 5.44194C7.17527 5.55915 7.33424 5.625 7.5 5.625H10.625C10.7908 5.625 10.9497 5.55915 11.0669 5.44194C11.1842 5.32473 11.25 5.16576 11.25 5C11.25 4.83424 11.1842 4.67527 11.0669 4.55806C10.9497 4.44085 10.7908 4.375 10.625 4.375H7.5ZM4.8925 7.65188L4.45062 7.21C4.39297 7.15031 4.32401 7.10269 4.24775 7.06994C4.1715 7.03718 4.08949 7.01994 4.0065 7.01922C3.92351 7.0185 3.84121 7.03431 3.7644 7.06574C3.68759 7.09716 3.61781 7.14357 3.55913 7.20225C3.50045 7.26094 3.45404 7.33072 3.42261 7.40753C3.39119 7.48434 3.37537 7.56664 3.37609 7.64963C3.37681 7.73261 3.39406 7.81463 3.42681 7.89088C3.45957 7.96713 3.50718 8.0361 3.56687 8.09375L4.45062 8.9775C4.50867 9.03561 4.5776 9.08171 4.65347 9.11316C4.72935 9.14461 4.81068 9.1608 4.89281 9.1608C4.97495 9.1608 5.05628 9.14461 5.13215 9.11316C5.20802 9.08171 5.27695 9.03561 5.335 8.9775L7.1025 7.21C7.21986 7.09281 7.28586 6.93379 7.28597 6.76794C7.28609 6.60209 7.22032 6.44298 7.10312 6.32563C6.98593 6.20827 6.82692 6.14227 6.66107 6.14215C6.49521 6.14204 6.33611 6.20781 6.21875 6.325L4.8925 7.65125V7.65188Z" fill="white"/>
</svg>
