<svg width="24" height="23" viewBox="0 0 24 23" fill="none" xmlns="http://www.w3.org/2000/svg">
<mask id="path-1-inside-1_0_229" fill="white">
<path d="M11.9766 4.6012C16.1928 4.60133 19.6269 6.91467 19.7783 9.80725H19.7852V16.9742H4.16699V9.80725H4.1748C4.32621 6.9146 7.76013 4.6012 11.9766 4.6012Z"/>
</mask>
<path d="M11.9766 4.6012C16.1928 4.60133 19.6269 6.91467 19.7783 9.80725H19.7852V16.9742H4.16699V9.80725H4.1748C4.32621 6.9146 7.76013 4.6012 11.9766 4.6012Z" fill="white"/>
<path d="M11.9766 4.6012L11.9766 4.1012H11.9766V4.6012ZM19.7783 9.80725L19.279 9.83338L19.3038 10.3073H19.7783V9.80725ZM19.7852 9.80725H20.2852V9.30725H19.7852V9.80725ZM19.7852 16.9742V17.4742H20.2852V16.9742H19.7852ZM4.16699 16.9742H3.66699V17.4742H4.16699V16.9742ZM4.16699 9.80725V9.30725H3.66699V9.80725H4.16699ZM4.1748 9.80725V10.3073H4.64932L4.67412 9.83339L4.1748 9.80725ZM11.9766 4.6012L11.9765 5.1012C13.9975 5.10126 15.8108 5.65648 17.1237 6.53509C18.4393 7.41553 19.2139 8.58904 19.279 9.83338L19.7783 9.80725L20.2776 9.78112C20.1914 8.13288 19.1732 6.70343 17.6799 5.70402C16.1838 4.70278 14.1719 4.10127 11.9766 4.1012L11.9766 4.6012ZM19.7783 9.80725V10.3073H19.7852V9.80725V9.30725H19.7783V9.80725ZM19.7852 9.80725H19.2852V16.9742H19.7852H20.2852V9.80725H19.7852ZM19.7852 16.9742V16.4742H4.16699V16.9742V17.4742H19.7852V16.9742ZM4.16699 16.9742H4.66699V9.80725H4.16699H3.66699V16.9742H4.16699ZM4.16699 9.80725V10.3073H4.1748V9.80725V9.30725H4.16699V9.80725ZM4.1748 9.80725L4.67412 9.83339C4.73925 8.58899 5.51383 7.41545 6.82939 6.53501C8.14223 5.6564 9.9555 5.1012 11.9766 5.1012V4.6012V4.1012C9.7812 4.1012 7.7693 4.7027 6.27321 5.70395C4.77985 6.70338 3.76176 8.13286 3.67549 9.78112L4.1748 9.80725Z" fill="#FF9600" mask="url(#path-1-inside-1_0_229)"/>
<path d="M19.8988 11.4845C18.1281 13.4083 16.4359 11.1176 15.2417 10.9071C12.9333 10.5003 13.8483 7.9561 14.2162 5.84185C14.584 3.7276 20.536 1.82634 22.8444 2.23315C25.5207 2.17871 21.5807 10.0712 19.8988 11.4845Z" fill="#FF9600"/>
<path d="M19.3571 11.7233C17.6671 13.6084 16.0713 11.3818 14.9385 11.1822C12.749 10.7963 13.6296 8.31009 13.9887 6.24589C14.3479 4.18168 20.0073 2.2987 22.1969 2.68457C24.7379 2.61873 20.9604 10.3366 19.3571 11.7233Z" fill="white"/>
<path d="M4.2008 11.1284C6.01537 13.1524 7.72876 10.7617 8.94499 10.5474C11.296 10.1331 10.3504 7.46357 9.96481 5.24721C9.57923 3.03086 3.50264 1.00909 1.15166 1.42339C-1.5766 1.35271 2.47933 9.63945 4.2008 11.1284Z" fill="#FF9600"/>
<path d="M4.91247 11.3386C6.60247 13.2236 8.19824 10.9971 9.33098 10.7974C11.5206 10.4116 10.6399 7.92533 10.2808 5.86112C9.92168 3.79691 4.26224 1.91394 2.07265 2.2998C-0.468321 2.23397 3.30917 9.95183 4.91247 11.3386Z" fill="white"/>
<path d="M15.1167 21.0074C13.0178 21.8019 12.8956 19.4202 12.1679 18.809C10.7613 17.6275 12.5531 16.0379 13.7714 14.5686C14.9897 13.0993 19.9624 13.9015 21.3691 15.083C23.2399 16.0525 16.9216 20.5676 15.1167 21.0074Z" fill="#FFFAEA"/>
<path d="M9.04391 21.0189C11.1429 21.8133 11.265 19.4316 11.9927 18.8204C13.3994 17.639 11.6075 16.0494 10.3892 14.5801C9.17099 13.1108 4.1982 13.913 2.79155 15.0944C0.920746 16.064 7.23905 20.5791 9.04391 21.0189Z" fill="#FFFAEA"/>
<path d="M7.33496 11.0588C7.33496 10.3501 7.90951 9.77551 8.61825 9.77551C9.32699 9.77551 9.90154 10.3501 9.90154 11.0588V12.8882C9.90154 13.4612 9.43702 13.9257 8.86399 13.9257H8.37252C7.79949 13.9257 7.33496 13.4612 7.33496 12.8882V11.0588Z" fill="white"/>
<rect x="8.80908" y="10.3217" width="1.09216" height="3.60414" rx="0.546082" fill="black"/>
<path d="M17.1641 11.0588C17.1641 10.3501 16.5895 9.77551 15.8808 9.77551C15.172 9.77551 14.5975 10.3501 14.5975 11.0588V12.8882C14.5975 13.4612 15.062 13.9257 15.635 13.9257H16.1265C16.6995 13.9257 17.1641 13.4612 17.1641 12.8882V11.0588Z" fill="white"/>
<path d="M15.1436 10.3218C15.4451 10.3218 15.6894 10.5661 15.6895 10.8677V13.3794C15.6895 13.681 15.4451 13.9263 15.1436 13.9263C14.8421 13.9261 14.5977 13.6809 14.5977 13.3794V10.8677C14.5977 10.5662 14.8421 10.3219 15.1436 10.3218Z" fill="black"/>
<ellipse cx="12.0858" cy="15.8228" rx="3.76796" ry="3.27017" fill="#FFFAEA"/>
<path d="M12.6887 13.1847C12.4244 13.6548 11.7476 13.6548 11.4832 13.1847C11.224 12.7237 11.5571 12.1542 12.086 12.1542C12.6148 12.1542 12.948 12.7237 12.6887 13.1847Z" fill="black"/>
<path d="M9.46484 15.4656H14.9257V16.4549H9.46484V15.4656Z" fill="#A43035"/>
<path d="M14.9257 16.4549C14.9257 17.5173 13.7032 18.3785 12.1953 18.3785C10.6873 18.3785 9.46484 17.5173 9.46484 16.4549C9.46484 15.3925 10.8238 15.6854 12.3318 15.6854C13.8397 15.6854 14.9257 15.3925 14.9257 16.4549Z" fill="#A43035"/>
<path d="M13.8063 17.7461C13.9701 18.1583 13.085 18.3781 12.1953 18.3781C11.3056 18.3781 10.5025 18.2407 10.5844 17.7461C10.5844 17.397 11.3056 17.114 12.1953 17.114C13.085 17.114 13.8063 17.397 13.8063 17.7461Z" fill="#F97E61"/>
<path d="M4.38022 8.58399C5.36831 9.68612 6.30129 8.38433 6.96356 8.26762C8.24373 8.04202 7.72884 6.5884 7.51888 5.38154C7.30892 4.17467 4.00006 3.07377 2.71989 3.29937C1.23427 3.26088 3.44283 7.77323 4.38022 8.58399Z" fill="#FFFAEA"/>
<path d="M4.38022 8.58399C5.36831 9.68612 6.30129 8.38433 6.96356 8.26762C8.24373 8.04202 7.72884 6.5884 7.51888 5.38154C7.30892 4.17467 4.00006 3.07377 2.71989 3.29937C1.23427 3.26088 3.44283 7.77323 4.38022 8.58399Z" fill="#FF9600"/>
<path d="M19.8903 8.58399C18.9022 9.68612 17.9692 8.38433 17.3069 8.26762C16.0268 8.04202 16.5417 6.5884 16.7516 5.38154C16.9616 4.17467 20.2705 3.07377 21.5506 3.29937C23.0362 3.26088 20.8277 7.77323 19.8903 8.58399Z" fill="#FF9600"/>
</svg>
