<svg width="24" height="27" viewBox="0 0 24 27" fill="none" xmlns="http://www.w3.org/2000/svg">
<path d="M0.00878906 20.521C0.00878906 22.4901 0.00878906 24.4591 0.00878906 26.4281C1.26412 26.2922 1.98898 26.0421 2.88086 25.7492C4.53535 25.1742 6.05638 24.3817 7.43964 23.42C11.897 19.9896 12.2576 15.3139 12.8834 11.291C13.0428 9.87874 13.1486 8.52875 13.1588 7.03954L9.52152 6.99843C9.51646 7.0809 9.51363 7.14695 9.51112 7.19926C9.51112 7.19926 9.51112 7.19926 9.51112 7.19926C9.51112 7.19926 9.51112 7.19926 9.51112 7.19926C9.42392 10.5031 9.82774 13.6848 11.0668 16.8361C11.3926 17.6466 11.78 18.4427 12.214 19.2298C13.0681 20.7825 14.2103 22.2525 15.6479 23.4601C17.0621 24.6515 18.7673 25.5392 20.5907 26.0223C21.5675 26.2627 22.3382 26.44 23.6776 26.4154C23.4949 24.4549 23.3122 22.4943 23.1295 20.5338C23.2152 20.5408 23.0057 20.5635 22.9094 20.5721C22.7897 20.5825 22.6591 20.5883 22.5288 20.5902C22.2652 20.5937 21.99 20.5804 21.7167 20.552C20.6368 20.4394 19.5674 20.0905 18.606 19.5018C17.5753 18.8687 16.6586 18.0017 15.8949 16.9439C15.5077 16.4086 15.1842 15.8155 14.8981 15.1962C13.8024 12.8155 13.2 9.98847 13.1574 7.28722C13.1574 7.28722 13.1574 7.28722 13.1574 7.28722C13.1574 7.28722 13.1574 7.28722 13.1574 7.28722C13.1569 7.25532 13.1581 7.18681 13.1572 7.18174L9.51991 7.14063C9.56459 8.31061 9.50616 9.64046 9.36269 10.8835C8.97925 14.4863 7.53373 18.5349 5.13124 19.5419C4.00105 20.076 2.79431 20.4171 1.60664 20.5389C1.30148 20.57 0.996974 20.5865 0.70593 20.5855C0.559313 20.5852 0.416352 20.5804 0.282151 20.5705C0.168898 20.5602 -0.0443774 20.5462 0.00878906 20.521Z" fill="url(#paint0_linear_315_388)"/>
<path d="M4.89941 7.08596C8.9727 7.08596 11.4979 4.62245 11.4979 0.487427C11.4979 4.62245 14.1822 7.08596 18.2679 7.08596C14.1822 7.08596 11.4979 9.62027 11.4979 13.7059C11.4979 9.62027 8.9727 7.08596 4.89941 7.08596Z" fill="#DAF2FF" stroke="#FFFFF9" stroke-width="0.974782" stroke-linejoin="round"/>
<path d="M7.1543 7.03065C9.90142 7.03065 11.6045 5.3692 11.6045 2.58044C11.6045 5.3692 13.4148 7.03065 16.1703 7.03065C13.4148 7.03065 11.6045 8.73984 11.6045 11.4953C11.6045 8.73984 9.90142 7.03065 7.1543 7.03065Z" fill="#77CDFF"/>
<path d="M8.9248 7.00363C10.562 7.00363 11.577 6.01346 11.577 4.35144C11.577 6.01346 12.6559 7.00363 14.2981 7.00363C12.6559 7.00363 11.577 8.02227 11.577 9.66443C11.577 8.02227 10.562 7.00363 8.9248 7.00363Z" fill="#005587"/>
<defs>
<linearGradient id="paint0_linear_315_388" x1="11.7062" y1="7.09009" x2="11.7062" y2="23.4874" gradientUnits="userSpaceOnUse">
<stop offset="0.0913462" stop-color="#8ED6FF"/>
<stop offset="1" stop-color="#0077BD"/>
</linearGradient>
</defs>
</svg>
