<svg width="85" height="31" viewBox="0 0 85 31" fill="none" xmlns="http://www.w3.org/2000/svg">
<path d="M0.0256348 21.5754C0.0256348 23.6456 0.0256348 25.7158 0.0256348 27.786C1.34547 27.6431 2.10757 27.3802 3.04528 27.0722C4.78479 26.4677 6.38398 25.6344 7.83831 24.6234C12.5247 21.0167 12.9038 16.1007 13.5618 11.8711C13.7294 10.3863 13.8406 8.96694 13.8514 7.40121L10.0272 7.35798C10.0218 7.44468 10.0189 7.51413 10.0162 7.56913C10.0162 7.56913 10.0162 7.56913 10.0162 7.56913C10.0162 7.56913 10.0162 7.56913 10.0162 7.56913C9.92455 11.0427 10.3491 14.3879 11.6518 17.7011C11.9944 18.5533 12.4017 19.3903 12.858 20.2178C13.7559 21.8503 14.9568 23.3959 16.4683 24.6655C17.9552 25.9181 19.7481 26.8515 21.6651 27.3594C22.6921 27.6122 23.5025 27.7985 24.9106 27.7727C24.7186 25.7114 24.5265 23.6501 24.3344 21.5888C24.4353 21.5878 24.3157 21.6029 24.2804 21.6092C24.2267 21.617 24.1673 21.6237 24.1029 21.6291C23.9771 21.64 23.8398 21.6462 23.7028 21.6481C23.4257 21.6518 23.1363 21.6379 22.849 21.608C21.7136 21.4896 20.5893 21.1228 19.5784 20.5038C18.4947 19.8382 17.531 18.9267 16.7281 17.8145C16.321 17.2517 15.9808 16.6281 15.68 15.977C14.528 13.474 13.8947 10.5017 13.8499 7.66161C13.8499 7.66161 13.8499 7.66161 13.8499 7.66161C13.8499 7.66161 13.8499 7.66161 13.8499 7.66161C13.8493 7.62807 13.8506 7.55604 13.8497 7.55071L10.0255 7.50749C10.0724 8.73759 10.011 10.1358 9.86018 11.4426C9.45703 15.2306 7.93723 19.4872 5.41129 20.5459C4.22303 21.1075 2.95429 21.4662 1.70559 21.5943C1.38475 21.6269 1.0646 21.6442 0.758597 21.6432C0.604447 21.6429 0.45414 21.6379 0.313043 21.6274C0.244608 21.622 0.173263 21.6157 0.113889 21.6072C0.0680277 21.5987 -0.052332 21.5891 0.0256348 21.5754Z" fill="url(#paint0_linear_315_430)"/>
<path d="M5.16797 7.45004C9.45056 7.45004 12.1056 4.85995 12.1056 0.512451C12.1056 4.85995 14.9278 7.45004 19.2233 7.45004C14.9278 7.45004 12.1056 10.1146 12.1056 14.4101C12.1056 10.1146 9.45056 7.45004 5.16797 7.45004Z" fill="#FF9600" stroke="#FF9600" stroke-width="1.02487" stroke-linejoin="round"/>
<path d="M7.5376 7.39188C10.4259 7.39188 12.2165 5.64507 12.2165 2.71301C12.2165 5.64507 14.1198 7.39188 17.0169 7.39188C14.1198 7.39188 12.2165 9.18891 12.2165 12.0859C12.2165 9.18891 10.4259 7.39188 7.5376 7.39188Z" fill="white" fill-opacity="0.23"/>
<path d="M9.39966 7.36354C11.121 7.36354 12.1881 6.32249 12.1881 4.57507C12.1881 6.32249 13.3225 7.36354 15.049 7.36354C13.3225 7.36354 12.1881 8.43452 12.1881 10.1611C12.1881 8.43452 11.121 7.36354 9.39966 7.36354Z" fill="white"/>
<path d="M46.2693 22.5125H44.2737C42.894 22.5125 42.1549 21.7733 42.1549 20.7139V19.7038C41.6622 21.8226 39.6666 22.7588 37.7202 22.7588C35.5275 22.7588 33.3594 21.6994 33.3594 19.2357C33.3594 16.772 35.6261 15.7865 37.942 15.4416L42.1549 14.8503V14.2836C42.1549 13.0271 40.7013 12.7561 39.6912 12.7315C38.2622 12.7315 37.1782 13.101 37.0304 14.6532L34.0493 14.3822C34.0739 11.475 36.7594 10.2185 39.5926 10.2185C43.2143 10.2185 45.2099 11.5982 45.2099 14.259V19.9009L46.2693 19.9255V22.5125ZM42.1549 16.7227L38.7057 17.2894C37.6709 17.4618 36.4391 17.9546 36.5376 18.9893C36.6115 19.9502 37.7695 20.2458 38.7796 20.098C40.3318 19.9995 42.1303 19.1618 42.1549 17.3879V16.7227ZM46.984 10.3909H49.3738C50.4086 10.3909 51.0984 11.0562 51.0984 12.0909V12.3126C51.8868 11.204 53.0694 10.2924 54.2273 10.2924H56.9128V13.175H53.8085C51.9361 13.175 51.1477 14.3329 51.1477 16.4517V22.5125H48.0927V13.175H46.984V10.3909ZM60.6888 18.127C60.8613 19.9255 62.2656 20.2951 63.6699 20.2951C64.3844 20.2951 66.1583 20.2705 66.109 19.1864C66.0844 18.0038 63.5714 17.6589 62.1671 17.314C60.2946 16.8705 58.1019 16.0329 58.1019 13.8155C58.1019 10.7112 61.4279 10.2185 63.7438 10.2185C66.3061 10.2185 69.1148 11.0315 69.2872 14.4314L66.38 14.6532C66.2322 13.0518 65.0003 12.6083 63.6946 12.6083C62.9801 12.6083 61.2308 12.6576 61.2801 13.8155C61.3048 14.5054 62.241 14.8503 63.7192 15.2198C65.8134 15.6879 69.3365 16.3285 69.3365 19.0879C69.3365 22.1922 66.0597 22.7588 63.6453 22.7588C61.0584 22.7588 57.9787 22.1922 57.7324 18.4473L60.6888 18.127ZM83.2146 22.5125H81.2189C79.8393 22.5125 79.1001 21.7733 79.1001 20.7139V19.7038C78.6074 21.8226 76.6118 22.7588 74.6654 22.7588C72.4727 22.7588 70.3047 21.6994 70.3047 19.2357C70.3047 16.772 72.5713 15.7865 74.8872 15.4416L79.1001 14.8503V14.2836C79.1001 13.0271 77.6465 12.7561 76.6364 12.7315C75.2075 12.7315 74.1234 13.101 73.9756 14.6532L70.9945 14.3822C71.0191 11.475 73.7046 10.2185 76.5379 10.2185C80.1595 10.2185 82.1552 11.5982 82.1552 14.259V19.9009L83.2146 19.9255V22.5125ZM79.1001 16.7227L75.6509 17.2894C74.6162 17.4618 73.3843 17.9546 73.4829 18.9893C73.5568 19.9502 74.7147 20.2458 75.7248 20.098C77.277 19.9995 79.0755 19.1618 79.1001 17.3879V16.7227Z" fill="#3B424E"/>
<defs>
<linearGradient id="paint0_linear_315_430" x1="12.3241" y1="24.6942" x2="12.3241" y2="7.45435" gradientUnits="userSpaceOnUse">
<stop offset="0.152904" stop-color="#005587"/>
<stop offset="0.807692" stop-color="#47BBFF"/>
</linearGradient>
</defs>
</svg>
