<svg width="63" height="71" viewBox="0 0 63 71" fill="none" xmlns="http://www.w3.org/2000/svg">
<path d="M0.0898438 54.3843C0.0898438 59.6025 0.0898438 64.8208 0.0898438 70.039C3.41669 69.6788 5.33767 69.0159 7.70129 68.2396C12.086 66.716 16.117 64.6156 19.7828 62.0671C31.5955 52.9758 32.5512 40.5845 34.2098 29.9231C34.6322 26.1804 34.9125 22.6027 34.9396 18.6561L25.3001 18.5471C25.2987 18.5566 25.292 18.6968 25.2911 18.703C25.289 18.7386 25.2867 18.7799 25.2844 18.8267C25.2793 18.9353 25.2761 19.0017 25.2726 19.0794C25.2726 19.0794 25.2726 19.0794 25.2726 19.0794C25.2726 19.0794 25.2726 19.0794 25.2726 19.0794C25.0415 27.8351 26.1117 36.2671 29.3953 44.6185C30.2589 46.7666 31.2855 48.8764 32.4356 50.9622C34.6991 55.0772 37.7261 58.973 41.536 62.1732C45.2838 65.3306 49.803 67.6832 54.6353 68.9635C57.2239 69.6007 59.2665 70.0704 62.8161 70.0053C62.3319 64.8095 61.8478 59.6138 61.3636 54.418C61.5383 54.4072 61.4545 54.4194 61.4621 54.4227C61.4486 54.4278 61.4322 54.433 61.4041 54.4385C61.3592 54.4491 61.2925 54.4597 61.2274 54.4694C61.0922 54.489 60.9423 54.5058 60.7801 54.5195C60.463 54.5471 60.1169 54.5625 59.7716 54.5675C59.073 54.5768 58.3435 54.5417 57.6194 54.4663C54.7575 54.1679 51.9235 53.2434 49.3754 51.6831C46.6439 50.0054 44.2147 47.7077 42.1908 44.9043C41.1646 43.4856 40.307 41.9137 39.5489 40.2727C36.6451 33.9634 35.0488 26.4712 34.9359 19.3125C34.9359 19.3125 34.9359 19.3125 34.9359 19.3125C34.9359 19.3125 34.9359 19.3125 34.9359 19.3125C34.9345 19.2279 34.9376 19.0464 34.9353 19.0329L25.2959 18.924C25.4143 22.0246 25.2594 25.5489 24.8792 28.8431C23.863 38.3911 20.0322 49.1206 13.6652 51.7893C10.67 53.2048 7.47194 54.1089 4.32441 54.4317C3.51568 54.5141 2.7087 54.5577 1.93738 54.5551C1.54882 54.5543 1.16995 54.5416 0.814297 54.5153C0.641796 54.5017 0.461961 54.4857 0.3123 54.4643C0.231953 54.454 0.160061 54.4422 0.10139 54.4291C0.0712979 54.4225 0.0426465 54.4157 0.0254369 54.4083C0.0226994 54.4009 -0.0604977 54.3931 0.0898438 54.3843Z" fill="url(#paint0_linear_347_419)"/>
<path d="M13.0518 18.7789C23.8466 18.7789 30.5389 12.2502 30.5389 1.29169C30.5389 12.2502 37.6527 18.7789 48.4803 18.7789C37.6527 18.7789 30.5389 25.4952 30.5389 36.3228C30.5389 25.4952 23.8466 18.7789 13.0518 18.7789Z" fill="#FF9600" stroke="#FF9600" stroke-width="2.58333" stroke-linejoin="round"/>
<path d="M19.0249 18.6323C26.3052 18.6323 30.8187 14.2292 30.8187 6.8385C30.8187 14.2292 35.6164 18.6323 42.9188 18.6323C35.6164 18.6323 30.8187 23.1619 30.8187 30.4643C30.8187 23.1619 26.3052 18.6323 19.0249 18.6323Z" fill="white" fill-opacity="0.23"/>
<path d="M23.7183 18.5606C28.0571 18.5606 30.747 15.9365 30.747 11.5319C30.747 15.9365 33.6063 18.5606 37.9583 18.5606C33.6063 18.5606 30.747 21.2601 30.747 25.6122C30.747 21.2601 28.0571 18.5606 23.7183 18.5606Z" fill="white"/>
<defs>
<linearGradient id="paint0_linear_347_419" x1="31.0898" y1="18.79" x2="31.0898" y2="62.2456" gradientUnits="userSpaceOnUse">
<stop stop-color="white"/>
<stop offset="1" stop-color="#7ED0FF"/>
</linearGradient>
</defs>
</svg>
