<svg width="30" height="30" viewBox="0 0 30 30" fill="none" xmlns="http://www.w3.org/2000/svg">
<path d="M14.5438 3.13813L13.5579 6.49896C13.191 7.77648 12.5667 8.93753 11.7355 9.88852C10.9042 10.8395 9.88924 11.5538 8.77232 11.9739L5.79891 13.105C5.69868 13.1423 5.61134 13.2149 5.5494 13.3124C5.48746 13.4099 5.4541 13.5274 5.4541 13.6479C5.4541 13.7685 5.48746 13.8859 5.5494 13.9835C5.61134 14.081 5.69868 14.1536 5.79891 14.1909L8.77232 15.322C9.8789 15.7424 10.8844 16.4526 11.7086 17.3958C12.5328 18.3391 13.1531 19.4895 13.52 20.7554L14.5074 24.1577C14.5412 24.2708 14.605 24.369 14.69 24.4386C14.775 24.5081 14.8769 24.5455 14.9814 24.5455C15.0859 24.5455 15.1878 24.5081 15.2728 24.4386C15.3578 24.369 15.4216 24.2708 15.4554 24.1577L16.4807 20.7969C16.8487 19.5318 17.4693 18.382 18.2934 17.4389C19.1175 16.4958 20.1224 15.7852 21.2284 15.3636L24.2002 14.2343C24.3004 14.197 24.3878 14.1244 24.4497 14.0268C24.5117 13.9293 24.545 13.8118 24.545 13.6913C24.545 13.5708 24.5117 13.4533 24.4497 13.3558C24.3878 13.2582 24.3004 13.1856 24.2002 13.1483L21.2647 11.9739C20.1475 11.5548 19.1322 10.8409 18.3011 9.88972C17.47 8.93857 16.8464 7.77697 16.4807 6.49896L15.4933 3.09476C15.4558 2.98298 15.3885 2.88746 15.3011 2.82163C15.2136 2.7558 15.1103 2.72297 15.0057 2.72775C14.9011 2.73254 14.8004 2.7747 14.7178 2.84831C14.6353 2.92192 14.5734 3.02328 14.5438 3.13813Z" fill="white" stroke="white" stroke-width="0.931384" stroke-linecap="round" stroke-linejoin="round"/>
</svg>
