<svg width="27" height="27" viewBox="0 0 27 27" fill="none" xmlns="http://www.w3.org/2000/svg">
<path opacity="0.987" fill-rule="evenodd" clip-rule="evenodd" d="M12.1646 1.79038C13.388 1.65369 14.1119 1.65369 15.4265 1.79038C17.7534 2.13479 19.9105 3.21039 21.5859 4.86163C20.4538 5.93174 19.3365 7.01746 18.2345 8.11851C16.124 6.32976 13.7682 5.91688 11.1672 6.87988C9.25925 7.75738 7.93062 9.17938 7.18137 11.1459C5.95699 10.2343 4.74856 9.30158 3.55662 8.34801C3.47379 8.3044 3.37918 8.28844 3.28662 8.30244C5.18 4.65182 8.13875 2.48057 12.1629 1.78869" fill="#F44336"/>
<path opacity="0.997" fill-rule="evenodd" clip-rule="evenodd" d="M3.28332 8.3025C3.37895 8.28788 3.46951 8.30306 3.55501 8.34806C4.74695 9.30163 5.95538 10.2344 7.17976 11.1459C6.98709 11.9122 6.86564 12.6945 6.81695 13.4831C6.85857 14.2459 6.97951 14.9946 7.17976 15.7292L3.37445 18.7583C1.71732 15.2955 1.68695 11.8103 3.28332 8.3025Z" fill="#FFC107"/>
<path opacity="0.999" fill-rule="evenodd" clip-rule="evenodd" d="M21.4051 22.4269C20.2203 21.3819 18.9799 20.4018 17.6893 19.4906C18.983 18.5771 19.7683 17.3239 20.045 15.7309H13.7051V11.3282C17.3613 11.2978 21.0159 11.3287 24.6688 11.421C25.3618 15.1841 24.5613 18.5771 22.2675 21.6C21.9947 21.8899 21.7058 22.1659 21.4051 22.4269Z" fill="#448AFF"/>
<path opacity="0.993" fill-rule="evenodd" clip-rule="evenodd" d="M7.18031 15.7308C8.56406 19.17 11.1009 20.7753 14.7909 20.547C15.8268 20.4271 16.8199 20.0652 17.6901 19.4906C18.9816 20.4041 20.2202 21.3828 21.4059 22.4268C19.5272 24.1151 17.1317 25.1168 14.6104 25.2686C14.0375 25.3144 13.462 25.3144 12.8891 25.2686C8.59388 24.7623 5.4225 22.5922 3.375 18.7582L7.18031 15.7308Z" fill="#43A047"/>
</svg>
