<svg width="23" height="23" viewBox="0 0 23 23" fill="none" xmlns="http://www.w3.org/2000/svg">
<path d="M16.2913 17.2501C15.2276 17.2501 14.3747 18.103 14.3747 19.1667C14.3747 19.6751 14.5766 20.1626 14.9361 20.522C15.2955 20.8815 15.783 21.0834 16.2913 21.0834C16.7997 21.0834 17.2872 20.8815 17.6466 20.522C18.0061 20.1626 18.208 19.6751 18.208 19.1667C18.208 18.6584 18.0061 18.1709 17.6466 17.8115C17.2872 17.452 16.7997 17.2501 16.2913 17.2501ZM0.958008 1.91675V3.83341H2.87467L6.32467 11.1072L5.02134 13.4551C4.87759 13.7234 4.79134 14.0397 4.79134 14.3751C4.79134 14.8834 4.99327 15.3709 5.35272 15.7304C5.71216 16.0898 6.19968 16.2917 6.70801 16.2917H18.208V14.3751H7.11051C7.04697 14.3751 6.98603 14.3498 6.9411 14.3049C6.89617 14.26 6.87092 14.199 6.87092 14.1355C6.87092 14.0876 6.88051 14.0492 6.89967 14.0205L7.76217 12.4584H14.9018C15.6205 12.4584 16.253 12.0559 16.5788 11.4713L20.0097 5.27091C20.0768 5.11758 20.1247 4.95466 20.1247 4.79175C20.1247 4.53758 20.0237 4.29383 19.844 4.1141C19.6643 3.93438 19.4205 3.83341 19.1663 3.83341H4.99259L4.09176 1.91675M6.70801 17.2501C5.64426 17.2501 4.79134 18.103 4.79134 19.1667C4.79134 19.6751 4.99327 20.1626 5.35272 20.522C5.71216 20.8815 6.19968 21.0834 6.70801 21.0834C7.21634 21.0834 7.70385 20.8815 8.0633 20.522C8.42274 20.1626 8.62467 19.6751 8.62467 19.1667C8.62467 18.6584 8.42274 18.1709 8.0633 17.8115C7.70385 17.452 7.21634 17.2501 6.70801 17.2501Z" fill="#FE8C1E"/>
</svg>
