<svg width="38" height="38" viewBox="0 0 38 38" fill="none" xmlns="http://www.w3.org/2000/svg">
<path d="M1.58307 26.9166C1.58307 32.1574 5.84224 36.4166 11.0831 36.4166V34.0416C7.12474 34.0416 3.95807 30.8749 3.95807 26.9166H1.58307ZM36.4164 11.0833C36.4164 5.84242 32.1572 1.58325 26.9164 1.58325V3.95825C30.8747 3.95825 34.0414 7.12492 34.0414 11.0833H36.4164ZM25.3331 6.83992L32.6006 14.1233C37.6989 19.2216 37.6989 27.5024 32.6006 32.6008C27.5022 37.6991 19.2214 37.6991 14.1231 32.6008L2.9289 21.3749C2.15307 20.6308 2.15307 19.3799 2.9289 18.6041C3.11275 18.4198 3.33115 18.2735 3.57161 18.1738C3.81205 18.074 4.06982 18.0226 4.33015 18.0226C4.59048 18.0226 4.84825 18.074 5.0887 18.1738C5.32915 18.2735 5.54756 18.4198 5.7314 18.6041L12.7297 25.6024L13.8539 24.4783L3.4989 14.1233C2.72307 13.3474 2.72307 12.0966 3.4989 11.3208C4.27473 10.5449 5.5414 10.5449 6.33307 11.3208L15.5322 20.5833L16.6247 19.4274L5.74723 8.51825C4.9714 7.74242 4.9714 6.49159 5.74723 5.71575C6.52307 4.93992 7.7739 4.93992 8.54974 5.71575L19.4589 16.6249L20.5831 15.5166L11.8747 6.83992C11.0831 6.06409 11.0831 4.81325 11.8747 4.03742C12.6664 3.26159 13.9014 3.26159 14.6772 4.03742L26.7422 16.1024C25.7966 17.3206 25.3279 18.842 25.4241 20.3811C25.5203 21.9203 26.1747 23.3715 27.2647 24.4624L28.3889 23.3383C27.4994 22.4476 26.9997 21.2403 26.9997 19.9816C26.9997 18.7228 27.4994 17.5155 28.3889 16.6249L28.9431 16.0708L22.4989 9.62659C21.7231 8.85075 21.7231 7.59992 22.4989 6.82409C23.2906 6.06409 24.5414 6.06409 25.3331 6.83992Z" fill="#FF9600"/>
</svg>
