<svg width="113" height="113" viewBox="0 0 113 113" fill="none" xmlns="http://www.w3.org/2000/svg">
<path d="M34.9982 45.0375L47.3738 57.9935C47.5204 58.15 47.625 58.3411 47.6777 58.549C47.7304 58.7568 47.7296 58.9747 47.6753 59.1821L42.9698 76.4701C42.9002 76.7332 42.9182 77.0119 43.021 77.2639C43.1239 77.5159 43.306 77.7275 43.5399 77.8668C43.7737 78.006 44.0466 78.0653 44.3172 78.0356C44.5877 78.0059 44.8413 77.8889 45.0394 77.7023L57.9954 65.3267C58.1519 65.18 58.343 65.0755 58.5509 65.0228C58.7588 64.97 58.9766 64.9709 59.184 65.0252L76.472 69.7306C76.7351 69.8003 77.0138 69.7823 77.2658 69.6795C77.5178 69.5766 77.7294 69.3945 77.8687 69.1606C78.0079 68.9267 78.0672 68.6538 78.0375 68.3833C78.0078 68.1127 77.8908 67.8592 77.7042 67.6611L65.3286 54.705C65.182 54.5485 65.0774 54.3574 65.0247 54.1496C64.972 53.9417 64.9728 53.7239 65.0271 53.5164L69.7325 36.2284C69.8022 35.9653 69.7842 35.6867 69.6814 35.4347C69.5785 35.1827 69.3964 34.971 69.1625 34.8318C68.9286 34.6925 68.6558 34.6333 68.3852 34.6629C68.1146 34.6926 67.8611 34.8096 67.663 34.9962L54.707 47.3719C54.5505 47.5185 54.3594 47.623 54.1515 47.6758C53.9436 47.7285 53.7258 47.7276 53.5183 47.6733L36.2304 42.9679C35.9672 42.8983 35.6886 42.9162 35.4366 43.0191C35.1846 43.1219 34.9729 43.3041 34.8337 43.5379C34.6945 43.7718 34.6352 44.0447 34.6649 44.3152C34.6945 44.5858 34.8115 44.8393 34.9982 45.0375Z" fill="#FF9600" stroke="#FF9600" stroke-width="1.4191" stroke-linecap="round" stroke-linejoin="round"/>
</svg>
