<svg width="44" height="44" viewBox="0 0 44 44" fill="none" xmlns="http://www.w3.org/2000/svg">
<path fill-rule="evenodd" clip-rule="evenodd" d="M27.0727 5.50004C26.4653 6.17579 26.0351 6.99165 25.8205 7.87454C25.6059 8.75742 25.6137 9.67975 25.8431 10.5589C26.0726 11.438 26.5166 12.2465 27.1352 12.9119C27.7539 13.5773 28.528 14.0788 29.3882 14.3715L30.0812 14.608C30.3467 14.6985 30.5879 14.8487 30.7862 15.047C30.9845 15.2454 31.1347 15.4865 31.2252 15.752L31.4635 16.445C31.756 17.3052 32.2573 18.0793 32.9225 18.698C33.5877 19.3167 34.3961 19.7607 35.2751 19.9902C36.1541 20.2197 37.0763 20.2274 37.9591 20.0128C38.8419 19.7982 39.6576 19.3679 40.3332 18.7605L40.3313 29.3334C40.3313 31.7645 39.3656 34.0961 37.6465 35.8152C35.9274 37.5343 33.5958 38.5 31.1647 38.5H5.49984C5.01361 38.5 4.54729 38.3069 4.20347 37.9631C3.85966 37.6193 3.6665 37.1529 3.6665 36.6667V14.6667C3.6665 12.2356 4.63227 9.90398 6.35136 8.1849C8.07044 6.46581 10.402 5.50004 12.8332 5.50004H27.0727ZM16.4998 18.3334C16.0136 18.3334 15.5473 18.5265 15.2035 18.8703C14.8597 19.2142 14.6665 19.6805 14.6665 20.1667V23.8334C14.6665 24.3196 14.8597 24.7859 15.2035 25.1297C15.5473 25.4736 16.0136 25.6667 16.4998 25.6667C16.9861 25.6667 17.4524 25.4736 17.7962 25.1297C18.14 24.7859 18.3332 24.3196 18.3332 23.8334V20.1667C18.3332 19.6805 18.14 19.2142 17.7962 18.8703C17.4524 18.5265 16.9861 18.3334 16.4998 18.3334ZM27.4998 18.3334C27.0136 18.3334 26.5473 18.5265 26.2035 18.8703C25.8597 19.2142 25.6665 19.6805 25.6665 20.1667V23.8334C25.6665 24.3196 25.8597 24.7859 26.2035 25.1297C26.5473 25.4736 27.0136 25.6667 27.4998 25.6667C27.9861 25.6667 28.4524 25.4736 28.7962 25.1297C29.14 24.7859 29.3332 24.3196 29.3332 23.8334V20.1667C29.3332 19.6805 29.14 19.2142 28.7962 18.8703C28.4524 18.5265 27.9861 18.3334 27.4998 18.3334ZM36.6665 1.83337C37.0489 1.83353 37.4217 1.95326 37.7327 2.17582C38.0437 2.39838 38.2773 2.71262 38.4008 3.07454L38.6392 3.76754C39.1892 5.37904 40.4542 6.64587 42.0675 7.19587L42.7587 7.43237C43.1202 7.55626 43.434 7.79002 43.6561 8.10098C43.8783 8.41194 43.9977 8.78455 43.9977 9.16671C43.9977 9.54887 43.8783 9.92148 43.6561 10.2324C43.434 10.5434 43.1202 10.7772 42.7587 10.901L42.0657 11.1394C40.4542 11.6894 39.1873 12.9544 38.6373 14.5677L38.4008 15.2589C38.277 15.6204 38.0432 15.9342 37.7322 16.1563C37.4213 16.3785 37.0487 16.4979 36.6665 16.4979C36.2843 16.4979 35.9117 16.3785 35.6008 16.1563C35.2898 15.9342 35.0561 15.6204 34.9322 15.2589L34.6938 14.5659C34.4223 13.7705 33.9721 13.0479 33.3778 12.4536C32.7835 11.8593 32.0609 11.4091 31.2655 11.1375L30.5743 10.901C30.2128 10.7772 29.899 10.5434 29.6769 10.2324C29.4547 9.92148 29.3353 9.54887 29.3353 9.16671C29.3353 8.78455 29.4547 8.41194 29.6769 8.10098C29.899 7.79002 30.2128 7.55626 30.5743 7.43237L31.2673 7.19404C32.8788 6.64404 34.1457 5.37904 34.6957 3.76571L34.9322 3.07454C35.0557 2.71262 35.2893 2.39838 35.6003 2.17582C35.9113 1.95326 36.2841 1.83353 36.6665 1.83337Z" fill="#F79405"/>
</svg>
