<svg width="109" height="109" viewBox="0 0 109 109" fill="none" xmlns="http://www.w3.org/2000/svg">
<path d="M75.8907 65.4531L58.1856 62.7069C57.9734 62.676 57.7568 62.6995 57.5561 62.7751C57.3554 62.8507 57.1772 62.9759 57.038 63.1391L45.5444 76.8836C45.3683 77.0912 45.1294 77.2357 44.8639 77.2954C44.5983 77.3551 44.3205 77.3267 44.0726 77.2144C43.8246 77.1022 43.62 76.9122 43.4897 76.6732C43.3593 76.4343 43.3104 76.1594 43.3502 75.8901L46.0965 58.1849C46.1273 57.9727 46.1038 57.7562 46.0282 57.5555C45.9526 57.3548 45.8274 57.1765 45.6642 57.0374L31.9197 45.5438C31.7122 45.3677 31.5676 45.1288 31.5079 44.8633C31.4482 44.5977 31.4766 44.3199 31.5889 44.072C31.7012 43.824 31.8912 43.6194 32.1301 43.489C32.3691 43.3587 32.644 43.3098 32.9132 43.3496L50.6184 46.0958C50.8306 46.1267 51.0472 46.1032 51.2479 46.0276C51.4485 45.952 51.6268 45.8268 51.7659 45.6636L63.2596 31.9191C63.4356 31.7115 63.6745 31.5669 63.9401 31.5073C64.2056 31.4476 64.4834 31.476 64.7314 31.5883C64.9793 31.7005 65.1839 31.8905 65.3143 32.1295C65.4446 32.3684 65.4936 32.6433 65.4537 32.9126L62.7075 50.6177C62.6767 50.83 62.7001 51.0465 62.7757 51.2472C62.8513 51.4479 62.9766 51.6261 63.1397 51.7653L76.8842 63.2589C77.0918 63.435 77.2364 63.6739 77.2961 63.9394C77.3558 64.205 77.3273 64.4828 77.2151 64.7307C77.1028 64.9787 76.9128 65.1833 76.6738 65.3136C76.4349 65.444 76.16 65.4929 75.8907 65.4531Z" fill="#FF9600" fill-opacity="0.76" stroke="#FF9600" stroke-opacity="0.76" stroke-width="1.4191" stroke-linecap="round" stroke-linejoin="round"/>
<path d="M54.1997 30.3208L45.9979 29.0486C45.8996 29.0343 45.7993 29.0452 45.7063 29.0802C45.6134 29.1153 45.5308 29.1733 45.4664 29.2489L40.142 35.6158C40.0605 35.712 39.9498 35.779 39.8268 35.8066C39.7038 35.8343 39.5751 35.8211 39.4602 35.7691C39.3454 35.7171 39.2506 35.6291 39.1902 35.5184C39.1298 35.4077 39.1072 35.2804 39.1256 35.1556L40.3978 26.9539C40.4121 26.8556 40.4012 26.7553 40.3662 26.6623C40.3312 26.5693 40.2731 26.4868 40.1976 26.4223L33.8306 21.098C33.7344 21.0164 33.6674 20.9058 33.6398 20.7828C33.6121 20.6597 33.6253 20.5311 33.6773 20.4162C33.7293 20.3013 33.8173 20.2065 33.928 20.1462C34.0387 20.0858 34.166 20.0631 34.2908 20.0816L42.4925 21.3537C42.5908 21.368 42.6911 21.3571 42.7841 21.3221C42.8771 21.2871 42.9596 21.2291 43.0241 21.1535L48.3484 14.7865C48.43 14.6903 48.5406 14.6234 48.6637 14.5957C48.7867 14.5681 48.9154 14.5812 49.0302 14.6332C49.1451 14.6853 49.2399 14.7733 49.3002 14.884C49.3606 14.9946 49.3833 15.122 49.3648 15.2467L48.0927 23.4485C48.0784 23.5468 48.0893 23.6471 48.1243 23.7401C48.1593 23.833 48.2173 23.9156 48.2929 23.9801L54.6599 29.3044C54.7561 29.3859 54.823 29.4966 54.8507 29.6196C54.8783 29.7426 54.8652 29.8713 54.8132 29.9862C54.7612 30.101 54.6731 30.1958 54.5625 30.2562C54.4518 30.3166 54.3244 30.3392 54.1997 30.3208Z" fill="#FF9600" fill-opacity="0.39" stroke="#FF9600" stroke-opacity="0.39" stroke-width="1.4191" stroke-linecap="round" stroke-linejoin="round"/>
</svg>
