<svg width="8" height="14" viewBox="0 0 8 14" fill="none" xmlns="http://www.w3.org/2000/svg">
<path d="M0.115589 4.07089L0.111357 4.07513L0.153235 4.117L0.153903 4.11789L0.154572 4.11856L0.489373 4.45359L0.495388 4.44757C0.500289 4.4527 0.50363 4.45871 0.50853 4.46361C1.90254 5.85762 1.91033 8.11859 0.535038 9.52418L0.532143 9.52129L0.154125 9.89908L0.158581 9.90354C0.0782244 10.0039 0.037106 10.1301 0.0428843 10.2586C0.0486627 10.3871 0.100944 10.5091 0.189989 10.6019L0.189099 10.6028L0.861376 11.2748L0.865831 11.2704C0.959584 11.3442 1.07553 11.3842 1.19486 11.3838C1.31418 11.3834 1.42988 11.3427 1.52318 11.2684L1.52742 11.2726L1.56996 11.23L1.87759 10.9224L1.90543 10.8946L1.90477 10.8939C4.03476 8.7334 4.02607 5.2437 1.87737 3.095C1.87247 3.0901 1.86645 3.08676 1.86133 3.08186L1.86266 3.08052L1.48465 2.70228L1.48019 2.70674C1.37978 2.62638 1.25359 2.58526 1.12511 2.59104C0.996637 2.59682 0.874643 2.6491 0.781852 2.73814L0.781184 2.73748L0.774724 2.74394L0.77361 2.74483L0.772719 2.74594L0.154572 3.36409L0.153903 3.36453L0.153458 3.36498L0.109129 3.40931L0.113584 3.41376C0.0397482 3.50746 -0.000235558 3.62338 0.000128508 3.74268C0.000492334 3.86197 0.0411823 3.97764 0.115589 4.07089Z" fill="url(#paint0_linear_0_256)"/>
<path d="M2.70547 1.48107L2.70124 1.4853L2.74356 1.52763L3.07948 1.86332L3.08549 1.85731C3.09039 1.86243 3.09373 1.86844 3.09864 1.87357C5.92051 4.69566 5.92897 9.28087 3.12559 12.1143L3.12202 12.1108L2.787 12.4458L2.78589 12.4469L2.74401 12.4888L2.74824 12.493C2.66782 12.5934 2.62667 12.7197 2.63245 12.8482C2.63823 12.9767 2.69054 13.0988 2.77965 13.1916L2.77876 13.1925L3.09819 13.5119L3.45081 13.8645L3.45527 13.8598C3.54902 13.9337 3.66497 13.9736 3.78429 13.9733C3.90362 13.9729 4.01932 13.9322 4.11262 13.8578L4.11708 13.8623L4.49487 13.4843C8.05317 9.89568 8.04404 4.0813 4.46725 0.504732C4.46212 0.499609 4.45611 0.496491 4.45099 0.49159L4.45255 0.49003L4.07453 0.111791L4.07007 0.116245C3.96962 0.035857 3.84336 -0.00525899 3.71484 0.00056076C3.58631 0.00638051 3.46429 0.05874 3.37151 0.147878L3.36349 0.15456L2.74468 0.773599L2.74356 0.774489L2.74267 0.775602L2.69901 0.819264L2.70347 0.823719C2.62965 0.917473 2.58968 1.03342 2.59004 1.15274C2.59041 1.27207 2.63108 1.38777 2.70547 1.48107Z" fill="url(#paint1_linear_0_256)"/>
<defs>
<linearGradient id="paint0_linear_0_256" x1="1.74787" y1="2.5905" x2="1.74787" y2="11.3838" gradientUnits="userSpaceOnUse">
<stop stop-color="white"/>
<stop offset="1" stop-color="#FDEAAF"/>
</linearGradient>
<linearGradient id="paint1_linear_0_256" x1="4.87307" y1="1.72869e-05" x2="4.87307" y2="13.9733" gradientUnits="userSpaceOnUse">
<stop stop-color="white"/>
<stop offset="1" stop-color="#FDEAAF"/>
</linearGradient>
</defs>
</svg>
