<svg width="18" height="19" viewBox="0 0 18 19" fill="none" xmlns="http://www.w3.org/2000/svg">
<path d="M13.9082 5.0459C18.2636 9.7005 21.6966 18.7625 8.94727 18.7627C-3.80251 18.7627 -0.4518 9.86562 3.93848 5.04883L4.06055 5.11035C6.98255 6.58423 10.8583 6.58434 13.7803 5.11035L13.9082 5.0459ZM10.3936 9.79199C10.2128 9.79204 10.0514 9.83024 9.90918 9.90723C9.76976 9.98139 9.6592 10.0748 9.5791 10.1875V9.83203H8.95703V13.4717H9.5791V11.9453C9.6651 12.058 9.77669 12.1514 9.91309 12.2256C10.0524 12.2997 10.2127 12.3369 10.3936 12.3369C10.6042 12.3369 10.7948 12.2836 10.9639 12.1768C11.1357 12.07 11.2703 11.9201 11.3682 11.7275C11.469 11.5319 11.5195 11.3076 11.5195 11.0557C11.5195 10.8036 11.469 10.5824 11.3682 10.3926C11.2703 10.1999 11.1358 10.0511 10.9639 9.94727C10.7948 9.84344 10.6042 9.79199 10.3936 9.79199ZM6.10645 9.19043V12.2969H6.72852V11.0859H7.02246L7.70801 12.2969H8.42871L7.68555 11.0371C7.91984 10.9748 8.09619 10.8623 8.21484 10.6992C8.33341 10.5332 8.39346 10.3481 8.39355 10.1436C8.39355 9.96557 8.3497 9.8045 8.26367 9.66211C8.18061 9.517 8.05462 9.40328 7.88574 9.32031C7.71665 9.23429 7.51177 9.19043 7.27148 9.19043H6.10645ZM10.2295 10.3389C10.3451 10.3389 10.452 10.3675 10.5498 10.4238C10.6505 10.4802 10.7308 10.5632 10.79 10.6729C10.8522 10.7796 10.8838 10.9075 10.8838 11.0557C10.8837 11.2068 10.8523 11.3376 10.79 11.4473C10.7308 11.5568 10.6505 11.6409 10.5498 11.7002C10.452 11.7595 10.3451 11.789 10.2295 11.7891C10.1169 11.7891 10.0099 11.7613 9.90918 11.7051C9.81131 11.6458 9.73123 11.5609 9.66895 11.4512C9.60966 11.3415 9.57914 11.2127 9.5791 11.0645C9.5791 10.9161 9.60962 10.7865 9.66895 10.6768C9.73121 10.5672 9.8114 10.484 9.90918 10.4277C10.01 10.3685 10.1169 10.3389 10.2295 10.3389ZM7.25 9.70703C7.41889 9.70709 7.54493 9.74712 7.62793 9.82715C7.71092 9.90424 7.75192 10.014 7.75195 10.1562C7.75195 10.3016 7.71095 10.416 7.62793 10.499C7.54493 10.5791 7.41889 10.6191 7.25 10.6191H6.72852V9.70703H7.25ZM8.94727 0C11.2566 0.000102951 13.3504 0.749381 14.6133 1.37793C14.9165 1.52621 15.2111 1.69207 15.4941 1.87598L14.1289 3.87207L13.3574 4.27246C10.7007 5.61255 7.13864 5.61256 4.48242 4.27246L3.80273 4.00195L2.3584 1.87598C2.49183 1.78789 2.66039 1.68843 2.85742 1.58105C2.95677 1.52652 3.06408 1.4704 3.17871 1.41309C4.44796 0.777731 6.59305 0 8.94727 0ZM8.94727 0.938477C7.03799 0.938486 5.26608 1.49836 4.07715 2.02637C4.57316 2.18292 5.07869 2.31005 5.58984 2.40625C6.71455 2.61416 7.84799 2.64465 8.81738 2.36426C10.0495 2.00828 11.3429 1.71829 12.5547 1.54785C11.5206 1.20696 10.2696 0.938477 8.94727 0.938477Z" fill="#005587"/>
</svg>
